<?xml version="1.0" encoding="UTF-8"?>
<svg version="1.1" xmlns="http://www.w3.org/2000/svg" width="500" height="192">
<path d="M0 0 C165 0 330 0 500 0 C500 63.36 500 126.72 500 192 C335 192 170 192 0 192 C0 128.64 0 65.28 0 0 Z " fill="#010101" transform="translate(0,0)"/>
<path d="M0 0 C3.0625 2.5 3.0625 2.5 5 5 C5.33 4.01 5.66 3.02 6 2 C12.27 1.34 18.54 0.68 25 0 C24.31203189 4.8157768 23.77594292 8.07719254 22.1875 12.4375 C20.54424776 17.17810538 19.22351824 21.93516311 18.0625 26.8125 C16.75280989 32.29022145 15.20996342 37.61260063 13.375 42.9375 C9.77686124 53.21797316 9.77686124 53.21797316 9 64 C10.92906635 63.86098812 10.92906635 63.86098812 13 63 C14.50723691 60.87318194 14.50723691 60.87318194 15.625 58.25 C16.02976563 57.38890625 16.43453125 56.5278125 16.8515625 55.640625 C17.95147943 53.1115643 18.99333307 50.56746245 20 48 C20.99 48 21.98 48 23 48 C21.44964658 56.81253525 19.02185291 64.05843216 12 70 C8.69216735 71.10261088 6.04440731 71.23740779 2.5625 71.3125 C0.86287109 71.36857422 0.86287109 71.36857422 -0.87109375 71.42578125 C-4 71 -4 71 -6.33203125 69.24609375 C-8.80564892 65.91510977 -9.19153309 63.04233454 -10 59 C-10.56847656 59.68707031 -11.13695312 60.37414062 -11.72265625 61.08203125 C-17.30938768 67.60143904 -20.82494153 71.55387427 -29.625 72.3125 C-34.93168098 71.82114065 -37.70894948 70.69033094 -41.3125 66.75 C-45.76527741 60.47719275 -44.65195294 53.02438402 -43.70703125 45.7421875 C-39.97321741 28.07126656 -28.98540129 12.27586595 -14.1640625 2.27734375 C-9.68887399 -0.36414839 -5.07762127 -0.83589562 0 0 Z " fill="#F4F4F4" transform="translate(175,48)"/>
<path d="M0 0 C1.6875 1.5625 1.6875 1.5625 3 3 C3.33 2.34 3.66 1.68 4 1 C6.4765625 0.62109375 6.4765625 0.62109375 9.625 0.4375 C14.12953883 0.15951209 18.53718323 -0.3198982 23 -1 C20.92633361 7.71171576 18.67189707 16.30606239 15.93359375 24.83349609 C14.02649987 30.80778941 12.34029357 36.83391119 10.69946289 42.88623047 C9.84165172 46.036659 8.95585241 49.1285428 7.89453125 52.21875 C7.05400135 54.83210061 6.62273887 57.14987245 6.375 59.875 C6.30023438 60.65617187 6.22546875 61.43734375 6.1484375 62.2421875 C6.09945312 62.82226562 6.05046875 63.40234375 6 64 C10.07453357 62.46491662 11.71997685 61.49493804 13.8984375 57.64453125 C14.41136181 56.37537238 14.90326149 55.09753633 15.375 53.8125 C15.63410156 53.15830078 15.89320313 52.50410156 16.16015625 51.83007812 C16.79193902 50.22722184 17.39856557 48.61448889 18 47 C18.99 47 19.98 47 21 47 C18.06953828 57.51640871 15.22573286 64.62653011 5.625 70.4375 C1.58723431 71.3027355 -2.01882118 71.09626663 -6 70 C-9.02178325 67.92252402 -10.6294462 66.50450416 -11.51953125 62.890625 C-11.7792216 60.93775357 -11.89995658 58.96752058 -12 57 C-12.3403125 57.51949219 -12.680625 58.03898437 -13.03125 58.57421875 C-16.57391754 63.67151433 -20.04081795 67.83483052 -26 70 C-30.78484325 70.76809326 -35.5514597 71.15363918 -40.03125 69.04296875 C-43.2961348 66.52228563 -44.78989978 63.847359 -46 60 C-46.80810963 50.9113904 -46.00557402 42.60524468 -43 34 C-42.34 34 -41.68 34 -41 34 C-40.938125 32.824375 -40.938125 32.824375 -40.875 31.625 C-37.83971102 19.05023138 -26.62134676 7.82247091 -16 1 C-10.62409502 -1.52047881 -5.71977182 -1.90659061 0 0 Z " fill="#F6F6F6" transform="translate(312,49)"/>
<path d="M0 0 C-2.11167634 8.73466121 -4.48326932 17.37440969 -7 26 C-7.26361328 26.90427734 -7.52722656 27.80855469 -7.79882812 28.74023438 C-9.00406625 32.87363492 -10.2098613 37.00687154 -11.41723633 41.13964844 C-13.64014519 48.75173819 -15.83741883 56.37052111 -18 64 C-12.60529699 62.69401705 -12.60529699 62.69401705 -8.53125 59.18359375 C-6.71959083 55.9377044 -5.25189203 52.6090901 -3.83203125 49.17578125 C-1.32118015 43.2196199 0.95554547 37.98000054 7 35 C11.88576919 33.91711573 15.10090542 34.51834219 19.5 36.875 C22.23238323 39.19752575 22.87958563 39.93175251 23.2734375 43.42578125 C23.55028054 51.29451213 23.55028054 51.29451213 20.5625 55.125 C19.2940625 56.053125 19.2940625 56.053125 18 57 C17.67 57.33 17.34 57.66 17 58 C15.0390625 58.203125 15.0390625 58.203125 12.625 58.25 C11.83351562 58.27578125 11.04203125 58.3015625 10.2265625 58.328125 C8 58 8 58 6.23046875 56.76171875 C4.68054191 54.54261715 4.62857433 53.25041717 4.6875 50.5625 C4.69136719 49.80066406 4.69523437 49.03882813 4.69921875 48.25390625 C5.18425564 44.61927919 6.30232442 42.57455636 9.125 40.25 C9.74375 39.8375 10.3625 39.425 11 39 C7.68166794 39.27652767 6.31770884 39.66243436 4 42.125 C1.81555767 45.26513584 0.55542421 48.22258341 -0.75 51.8125 C-1.17796875 52.97394531 -1.6059375 54.13539062 -2.046875 55.33203125 C-2.36140625 56.21246094 -2.6759375 57.09289062 -3 58 C-3.66 58 -4.32 58 -5 58 C-5.268125 58.78375 -5.53625 59.5675 -5.8125 60.375 C-7 63 -7 63 -10 65 C-9.18015625 65.32613281 -8.3603125 65.65226562 -7.515625 65.98828125 C-6.43796875 66.42527344 -5.3603125 66.86226563 -4.25 67.3125 C-3.18265625 67.74175781 -2.1153125 68.17101562 -1.015625 68.61328125 C1.69913918 69.86165079 3.79609727 70.99692018 6 73 C8.76543722 81.29631167 6.63402312 90.64022103 5 99 C7.97 98.505 7.97 98.505 11 98 C11.19335938 97.41992188 11.38671875 96.83984375 11.5859375 96.2421875 C13.05729167 91.828125 14.52864583 87.4140625 16 83 C16.99 83 17.98 83 19 83 C18.66711772 90.4898513 15.49177233 97.45485997 10.2109375 102.81640625 C4.8852735 106.66271914 -0.62648185 106.72075326 -7 106 C-10 105 -10 105 -11.6875 103.0625 C-15.80287961 93.45994758 -11.70922121 80.90941347 -10 71 C-13.3 70.01 -16.6 69.02 -20 68 C-20.268125 69.43859375 -20.53625 70.8771875 -20.8125 72.359375 C-21.89444445 77.76528759 -23.37409951 82.98594594 -25 88.25 C-25.26039062 89.10851562 -25.52078125 89.96703125 -25.7890625 90.8515625 C-27.13168076 95.25914771 -28.54235607 99.6270682 -30 104 C-36.27 104 -42.54 104 -49 104 C-48.608125 102.72125 -48.21625 101.4425 -47.8125 100.125 C-46.39156384 95.39295212 -45.06113678 90.63835727 -43.75 85.875 C-40.91693997 75.60420577 -37.92252067 65.38192473 -34.92480469 55.15820312 C-33.980802 51.93443892 -33.04056406 48.70959925 -32.1015625 45.484375 C-31.79138184 44.41912598 -31.48120117 43.35387695 -31.16162109 42.25634766 C-30.57322189 40.23524209 -29.98499329 38.21408684 -29.39697266 36.19287109 C-29.12675293 35.26555176 -28.8565332 34.33823242 -28.578125 33.3828125 C-28.31813721 32.48771973 -28.05814941 31.59262695 -27.7902832 30.67041016 C-27.25402978 28.8583805 -26.70254439 27.05080257 -26.13745117 25.24755859 C-25.86392822 24.37180176 -25.59040527 23.49604492 -25.30859375 22.59375 C-25.06165771 21.81966797 -24.81472168 21.04558594 -24.56030273 20.24804688 C-23.69076648 16.75929314 -23.80124987 13.57750232 -24 10 C-26.31 9.34 -28.62 8.68 -31 8 C-31 7.01 -31 6.02 -31 5 C-29.24236328 4.83564453 -29.24236328 4.83564453 -27.44921875 4.66796875 C-19.41505426 3.87242222 -11.71198951 2.99972513 -3.96875 0.5859375 C-2 0 -2 0 0 0 Z " fill="#F8F8F8" transform="translate(106,14)"/>
<path d="M0 0 C6.03434853 5.19234641 6.43986524 10.75325141 7.29296875 18.30078125 C7.48636589 19.88828438 7.48636589 19.88828438 7.68367004 21.50785828 C8.09180153 24.87902281 8.48360093 28.25185599 8.875 31.625 C9.14931503 33.91484265 9.42469338 36.20455819 9.70117188 38.49414062 C10.37561392 44.09884544 11.03666747 49.70500726 11.6875 55.3125 C14.82378987 51.18821152 17.24100812 46.87221551 19.6875 42.3125 C20.05230469 41.66023438 20.41710937 41.00796875 20.79296875 40.3359375 C23.70763702 34.90862418 25.23920074 29.28124845 26.6875 23.3125 C26.09324219 23.0546875 25.49898438 22.796875 24.88671875 22.53125 C22.509993 21.21413023 21.21964427 19.89906066 19.5 17.8125 C18.99082031 17.2040625 18.48164063 16.595625 17.95703125 15.96875 C14.95496355 12.05220629 15.12894575 8.07663915 15.6875 3.3125 C17.125 0.25 17.125 0.25 19.6875 -1.6875 C22.82545404 -2.38418337 25.59455487 -2.61320541 28.6875 -1.6875 C31.6304738 1.04635434 32.59778317 2.70073013 33.18359375 6.6953125 C33.00248246 18.26228706 30.85534453 27.94676533 25.6875 38.3125 C25.39101563 38.91868164 25.09453125 39.52486328 24.7890625 40.14941406 C19.71825134 50.44335727 14.02888101 59.50034996 6.6875 68.3125 C6.06230469 69.08980469 5.43710938 69.86710937 4.79296875 70.66796875 C3.48242381 72.26549433 2.09486843 73.79957894 0.6875 75.3125 C0.0275 75.3125 -0.6325 75.3125 -1.3125 75.3125 C-1.3125 75.9725 -1.3125 76.6325 -1.3125 77.3125 C-15.44237013 89.3125 -15.44237013 89.3125 -23.3125 89.3125 C-23.3125 89.9725 -23.3125 90.6325 -23.3125 91.3125 C-27.93731604 92.85410535 -32.48311903 92.81134324 -37.3125 92.3125 C-40 90.8125 -40 90.8125 -41.3125 88.3125 C-41.86797723 85.3439819 -41.70639027 83.41438586 -41.3125 80.3125 C-39.56212338 77.8771934 -38.21769776 77.48500331 -35.32421875 76.93359375 C-30.52167974 76.54375034 -27.77431851 77.30513561 -23.9375 80.25 C-22.99777344 81.06791016 -22.99777344 81.06791016 -22.0390625 81.90234375 C-20.25677629 83.52840163 -20.25677629 83.52840163 -17.3125 84.3125 C-14.87602029 83.05775857 -12.7727466 81.50681905 -10.546875 79.91015625 C-8.3125 78.3125 -8.3125 78.3125 -5.1875 76.5625 C-3.00480263 73.94326316 -3.05318671 73.51396505 -3.3125 70.25 C-3.62137198 68.26686866 -3.95910645 66.28818338 -4.3125 64.3125 C-4.52057226 62.96800698 -4.72471361 61.62290213 -4.92578125 60.27734375 C-5.988608 53.25011117 -7.14661842 46.24045811 -8.36328125 39.23828125 C-10.20266911 28.59200097 -11.93160618 18.12988438 -12.3125 7.3125 C-12.9725 7.3125 -13.6325 7.3125 -14.3125 7.3125 C-14.3125 6.6525 -14.3125 5.9925 -14.3125 5.3125 C-17.48130858 5.99847533 -17.48130858 5.99847533 -18.6640625 8.67578125 C-19.08429688 9.64902344 -19.50453125 10.62226562 -19.9375 11.625 C-20.36289063 12.59050781 -20.78828125 13.55601563 -21.2265625 14.55078125 C-22.11601591 16.81280845 -22.80574451 18.94201044 -23.3125 21.3125 C-24.3025 21.3125 -25.2925 21.3125 -26.3125 21.3125 C-24.38685451 12.29697792 -22.58105728 5.4453452 -15.3125 -0.6875 C-10.26150982 -2.85221008 -4.75746726 -2.4236154 0 0 Z " fill="#F7F7F7" transform="translate(231.3125,50.6875)"/>
<path d="M0 0 C-2.07366639 8.71171576 -4.32810293 17.30606239 -7.06640625 25.83349609 C-8.97350013 31.80778941 -10.65970643 37.83391119 -12.30053711 43.88623047 C-13.15834828 47.036659 -14.04414759 50.1285428 -15.10546875 53.21875 C-15.94599865 55.83210061 -16.37726113 58.14987245 -16.625 60.875 C-16.69976562 61.65617187 -16.77453125 62.43734375 -16.8515625 63.2421875 C-16.90054687 63.82226562 -16.94953125 64.40234375 -17 65 C-12.92546643 63.46491662 -11.28002315 62.49493804 -9.1015625 58.64453125 C-8.58863819 57.37537238 -8.09673851 56.09753633 -7.625 54.8125 C-7.36589844 54.15830078 -7.10679687 53.50410156 -6.83984375 52.83007812 C-6.20806098 51.22722184 -5.60143443 49.61448889 -5 48 C-4.01 48 -3.02 48 -2 48 C-4.93046172 58.51640871 -7.77426714 65.62653011 -17.375 71.4375 C-21.32206788 72.28330026 -25.15893022 72.30885768 -29 71 C-31.68648676 69.01184716 -33.65530299 67.46932797 -34.44335938 64.11010742 C-34.60189076 61.92695532 -34.58411408 59.81196617 -34.5 57.625 C-34.50257813 56.89539063 -34.50515625 56.16578125 -34.5078125 55.4140625 C-34.43176486 51.15539476 -33.77243185 48.02154971 -31.90917969 44.13476562 C-29.69754806 38.94182606 -28.40235895 33.36158242 -26.875 27.9375 C-26.51535156 26.68388672 -26.15570313 25.43027344 -25.78515625 24.13867188 C-24.26038734 18.7677162 -22.83280844 13.52762304 -22 8 C-21.34 8 -20.68 8 -20 8 C-19.67 6.02 -19.34 4.04 -19 2 C-18.16855469 1.93941406 -17.33710938 1.87882812 -16.48046875 1.81640625 C-14.85044922 1.69072266 -14.85044922 1.69072266 -13.1875 1.5625 C-12.10855469 1.48128906 -11.02960938 1.40007813 -9.91796875 1.31640625 C-6.3554455 0.93010855 -3.65278001 0 0 0 Z " fill="#F7F7F7" transform="translate(335,48)"/>
<path d="M0 0 C-0.40120612 4.41326732 -1.35515848 8.24835752 -2.8125 12.4375 C-4.45575224 17.17810538 -5.77648176 21.93516311 -6.9375 26.8125 C-8.24719011 32.29022145 -9.79003658 37.61260063 -11.625 42.9375 C-15.22313876 53.21797316 -15.22313876 53.21797316 -16 64 C-14.07093365 63.86098812 -14.07093365 63.86098812 -12 63 C-10.49276309 60.87318194 -10.49276309 60.87318194 -9.375 58.25 C-8.97023437 57.38890625 -8.56546875 56.5278125 -8.1484375 55.640625 C-7.04852057 53.1115643 -6.00666693 50.56746245 -5 48 C-4.01 48 -3.02 48 -2 48 C-3.55035342 56.81253525 -5.97814709 64.05843216 -13 70 C-16.30783265 71.10261088 -18.95559269 71.23740779 -22.4375 71.3125 C-24.13712891 71.36857422 -24.13712891 71.36857422 -25.87109375 71.42578125 C-29.62950532 70.91433698 -30.72804777 69.97143155 -33 67 C-33.75 64.4375 -33.75 64.4375 -34 61 C-34.07476562 60.21625 -34.14953125 59.4325 -34.2265625 58.625 C-34.60678648 51.74094469 -33.02034745 46.65152183 -30.37109375 40.33984375 C-28.18479578 35.01424614 -26.5899217 29.5279222 -25 24 C-24.7834375 23.24847656 -24.566875 22.49695313 -24.34375 21.72265625 C-23.03342284 16.85710319 -22.44015758 12.00389667 -22 7 C-21.34 7 -20.68 7 -20 7 C-19.67 5.35 -19.34 3.7 -19 2 C-16.20849551 1.66525856 -13.41681356 1.33214502 -10.625 1 C-9.43390625 0.85691406 -9.43390625 0.85691406 -8.21875 0.7109375 C-2.2265625 0 -2.2265625 0 0 0 Z " fill="#F9F9F9" transform="translate(200,48)"/>
<path d="M0 0 C5.46341463 2.92682927 5.46341463 2.92682927 7 6 C7.62165748 11.51498995 8.06404786 15.63583608 4.5625 20.125 C3.716875 20.74375 2.87125 21.3625 2 22 C1.505 22.495 1.505 22.495 1 23 C-0.9609375 23.203125 -0.9609375 23.203125 -3.375 23.25 C-4.16648437 23.27578125 -4.95796875 23.3015625 -5.7734375 23.328125 C-8 23 -8 23 -9.76953125 21.76171875 C-11.31945809 19.54261715 -11.37142567 18.25041717 -11.3125 15.5625 C-11.30863281 14.80066406 -11.30476563 14.03882813 -11.30078125 13.25390625 C-10.81574436 9.61927919 -9.69767558 7.57455636 -6.875 5.25 C-6.25625 4.8375 -5.6375 4.425 -5 4 C-8.31833206 4.27652767 -9.68229116 4.66243436 -12 7.125 C-14.18444233 10.26513584 -15.44457579 13.22258341 -16.75 16.8125 C-17.17796875 17.97394531 -17.6059375 19.13539062 -18.046875 20.33203125 C-18.36140625 21.21246094 -18.6759375 22.09289062 -19 23 C-19.66 23 -20.32 23 -21 23 C-21.268125 23.78375 -21.53625 24.5675 -21.8125 25.375 C-23 28 -23 28 -26 30 C-25.18015625 30.32613281 -24.3603125 30.65226562 -23.515625 30.98828125 C-22.43796875 31.42527344 -21.3603125 31.86226562 -20.25 32.3125 C-19.18265625 32.74175781 -18.1153125 33.17101562 -17.015625 33.61328125 C-14.30086082 34.86165079 -12.20390273 35.99692018 -10 38 C-7.23456278 46.29631167 -9.36597688 55.64022103 -11 64 C-8.03 63.505 -8.03 63.505 -5 63 C-4.80664062 62.41992188 -4.61328125 61.83984375 -4.4140625 61.2421875 C-2.94270833 56.828125 -1.47135417 52.4140625 0 48 C0.99 48 1.98 48 3 48 C2.66711772 55.4898513 -0.50822767 62.45485997 -5.7890625 67.81640625 C-11.1147265 71.66271914 -16.62648185 71.72075326 -23 71 C-26 70 -26 70 -27.6875 68.0625 C-31.80287961 58.45994758 -27.70922121 45.90941347 -26 36 C-30.95 34.515 -30.95 34.515 -36 33 C-34.515 32.505 -34.515 32.505 -33 32 C-33 31.34 -33 30.68 -33 30 C-33.66 30 -34.32 30 -35 30 C-34.67 29.34 -34.34 28.68 -34 28 C-33.071875 27.87625 -32.14375 27.7525 -31.1875 27.625 C-27.32948337 26.86852615 -26.37788145 26.09124588 -24 23 C-22.09307956 19.68165814 -20.48801068 16.25945115 -19.10546875 12.69140625 C-15.57866294 3.79184947 -10.21376171 -2.22441271 0 0 Z " fill="#F7F7F7" transform="translate(122,49)"/>
<path d="M0 0 C3.04344421 4.56516632 2.45849811 8.68866706 1.4296875 13.875 C-0.06139102 20.02766084 -1.8456559 26.0489867 -4 32 C-4.35964844 33.0209375 -4.71929687 34.041875 -5.08984375 35.09375 C-8.28782929 43.83967852 -11.83567567 52.73649444 -19 59 C-21.75 59.25 -21.75 59.25 -24 59 C-28.3650163 50.26996741 -25.018546 35.74805664 -22.20068359 26.87719727 C-20.13215901 20.87191828 -17.42891045 15.35200309 -14 10 C-13.55398437 9.30132812 -13.10796875 8.60265625 -12.6484375 7.8828125 C-9.26211113 2.87603547 -6.45190925 -1.01872251 0 0 Z " fill="#080808" transform="translate(176,53)"/>
<path d="M0 0 C2.94996328 4.42494492 1.88280439 7.90809498 1 13 C0.04870011 17.07009264 -1.10681781 21.06125281 -2.3125 25.0625 C-2.60833984 26.08666016 -2.90417969 27.11082031 -3.20898438 28.16601562 C-5.63156905 36.35466575 -8.62150568 44.02198508 -13 51.375 C-13.7115625 52.59316406 -13.7115625 52.59316406 -14.4375 53.8359375 C-16.09460438 56.13102706 -17.59545589 57.51846002 -20 59 C-22.75 59.1875 -22.75 59.1875 -25 59 C-29.0556935 46.83291951 -24.321023 30.28148224 -19 19 C-13.0785646 7.22422763 -13.0785646 7.22422763 -9 3 C-8.34 3 -7.68 3 -7 3 C-7 2.34 -7 1.68 -7 1 C-4.46578263 -0.26710868 -2.80561762 -0.28056176 0 0 Z " fill="#080808" transform="translate(311,53)"/>
<path d="M0 0 C3.38460117 1.01299683 4.42246652 2.67427523 6.21875 5.6640625 C9.06021935 25.03975112 -0.9915993 41.30554592 -9.78125 57.6640625 C-10.77125 57.6640625 -11.76125 57.6640625 -12.78125 57.6640625 C-11.59197308 53.6006997 -9.99764769 50.14727864 -7.85546875 46.5 C-3.92635051 39.78477973 -1.6181072 33.23414068 0.21875 25.6640625 C-0.37550781 25.40625 -0.96976562 25.1484375 -1.58203125 24.8828125 C-3.958757 23.56569273 -5.24910573 22.25062316 -6.96875 20.1640625 C-7.47792969 19.555625 -7.98710937 18.9471875 -8.51171875 18.3203125 C-11.51378645 14.40376879 -11.33980425 10.42820165 -10.78125 5.6640625 C-8.30315414 0.38464089 -5.37911235 0.09210809 0 0 Z " fill="#F2F2F2" transform="translate(257.78125,48.3359375)"/>
<path d="M0 0 C0.89203125 0.01804687 1.7840625 0.03609375 2.703125 0.0546875 C3.71632813 0.08949219 3.71632813 0.08949219 4.75 0.125 C4.75 0.785 4.75 1.445 4.75 2.125 C6.07 2.785 7.39 3.445 8.75 4.125 C8.875 11.875 8.875 11.875 7.75 14.125 C7.09 14.125 6.43 14.125 5.75 14.125 C5.75 14.785 5.75 15.445 5.75 16.125 C0.45966694 19.65188871 -2.8616873 21.06753794 -9.25 20.125 C-12.56141503 17.3930826 -13.17595907 15.82838879 -13.625 11.5625 C-13.28942515 8.48639717 -12.89408193 6.69387802 -11.25 4.125 C-10.59 4.125 -9.93 4.125 -9.25 4.125 C-9.25 3.465 -9.25 2.805 -9.25 2.125 C-6.03817851 0.21891902 -3.71117397 -0.09766247 0 0 Z " fill="#F1F1F1" transform="translate(351.25,99.875)"/>
<path d="M0 0 C7.33333333 0 14.66666667 0 22 0 C21.34 5.61 20.68 11.22 20 17 C15.71 17 11.42 17 7 17 C6.34 15.02 5.68 13.04 5 11 C4.01 11 3.02 11 2 11 C2 12.98 2 14.96 2 17 C0.68 17 -0.64 17 -2 17 C-2.21824777 10.9981863 -1.5056904 5.80766296 0 0 Z " fill="#E8E8E8" transform="translate(202,149)"/>
<path d="M0 0 C3.81489658 -0.44359263 5.58702639 -0.26035293 8.875 1.8125 C11.95160709 6.42741064 12.04514431 10.60413867 11 16 C8.5625 19.125 8.5625 19.125 6 21 C5.67 21.33 5.34 21.66 5 22 C3.0390625 22.203125 3.0390625 22.203125 0.625 22.25 C-0.16648437 22.27578125 -0.95796875 22.3015625 -1.7734375 22.328125 C-4 22 -4 22 -5.76953125 20.76171875 C-7.31945809 18.54261715 -7.37142567 17.25041717 -7.3125 14.5625 C-7.30863281 13.80066406 -7.30476563 13.03882813 -7.30078125 12.25390625 C-6.96833619 9.76272702 -6.30813668 8.1372374 -5 6 C-3.67151309 4.99357052 -2.33849671 3.99307821 -1 3 C-0.67 2.01 -0.34 1.02 0 0 Z " fill="#F7F7F7" transform="translate(118,50)"/>
<path d="M0 0 C2.31855996 1.3478134 4.25252629 2.83090251 6.2734375 4.58984375 C8.05572371 6.21590163 8.05572371 6.21590163 11 7 C13.21168542 5.78914883 13.21168542 5.78914883 15.4375 4.0625 C18.83309124 1.54022495 19.58090054 1 24 1 C18.75920786 6.73211641 13.00465726 11.39965071 5 12 C5 12.66 5 13.32 5 14 C0.37518396 15.54160535 -4.17061903 15.49884324 -9 15 C-11.6875 13.5 -11.6875 13.5 -13 11 C-13.55547723 8.0314819 -13.39389027 6.10188586 -13 3 C-10.02742888 -1.13575112 -4.62818293 -0.9711597 0 0 Z " fill="#F5F5F5" transform="translate(203,128)"/>
<path d="M0 0 C1.58246707 -0.08153933 3.16616273 -0.13943557 4.75 -0.1875 C6.07257813 -0.23970703 6.07257813 -0.23970703 7.421875 -0.29296875 C10.52190207 0.05930705 11.82118141 0.78620038 14 3 C14.61712546 7.78272228 14.72784513 9.85970929 12.125 13.9375 C9.07983388 16.89310241 7.50260769 17.12146582 3.375 17.0625 C2.14910156 17.04896484 2.14910156 17.04896484 0.8984375 17.03515625 C0.27195312 17.02355469 -0.35453125 17.01195312 -1 17 C-1.12036664 11.22240116 -0.8320582 5.72040011 0 0 Z " fill="#E5E5E5" transform="translate(88,149)"/>
<path d="M0 0 C1.32 0 2.64 0 4 0 C7 4.07142857 7 4.07142857 7 7 C7.78375 6.21625 8.5675 5.4325 9.375 4.625 C10.91666667 3.08333333 12.45833333 1.54166667 14 0 C15.32 0 16.64 0 18 0 C17.38273804 5.67355671 16.72054048 11.33861055 16 17 C14.68 17 13.36 17 12 17 C12 14.03 12 11.06 12 8 C11.01 9.485 11.01 9.485 10 11 C7.375 11.1875 7.375 11.1875 5 11 C4.67 9.68 4.34 8.36 4 7 C3.34 7 2.68 7 2 7 C1.67 10.3 1.34 13.6 1 17 C-0.32 17 -1.64 17 -3 17 C-2.69188262 14.54104382 -2.37871012 12.08291693 -2.0625 9.625 C-1.97548828 8.92632812 -1.88847656 8.22765625 -1.79882812 7.5078125 C-1.11328125 2.2265625 -1.11328125 2.2265625 0 0 Z " fill="#E6E6E6" transform="translate(120,149)"/>
<path d="M0 0 C2.25 0 2.25 0 5 1 C6.70175879 3.57166744 7.77644187 6.14503103 9 9 C9.66 6.03 10.32 3.06 11 0 C12.32 0 13.64 0 15 0 C14.34 5.61 13.68 11.22 13 17 C11.35 17 9.7 17 8 17 C7.32845067 15.71086513 6.66291141 14.41859796 6 13.125 C5.62875 12.40570313 5.2575 11.68640625 4.875 10.9453125 C4 9 4 9 4 7 C3.34 7 2.68 7 2 7 C2.020625 8.093125 2.04125 9.18625 2.0625 10.3125 C2 14 2 14 1 17 C0.01 17 -0.98 17 -2 17 C-2.22084624 10.90218999 -2.01167675 5.78357065 0 0 Z " fill="#E7E7E7" transform="translate(153,149)"/>
<path d="M0 0 C1.65 0 3.3 0 5 0 C9 6.75 9 6.75 9 9 C9.66 9 10.32 9 11 9 C11.33 6.03 11.66 3.06 12 0 C13.32 0 14.64 0 16 0 C15.68985608 2.08368538 15.3767948 4.16693668 15.0625 6.25 C14.88847656 7.41015625 14.71445313 8.5703125 14.53515625 9.765625 C14.1272264 12.23106961 13.66098697 14.59424562 13 17 C11.68 17 10.36 17 9 17 C7.35 14.03 5.7 11.06 4 8 C3.34 10.97 2.68 13.94 2 17 C1.01 17 0.02 17 -1 17 C-1.10477512 11.21408489 -0.99250545 5.70690634 0 0 Z " fill="#E7E7E7" transform="translate(71,149)"/>
<path d="M0 0 C-0.66 5.61 -1.32 11.22 -2 17 C-4.97 17 -7.94 17 -11 17 C-12.86314624 13.16411068 -13.12619447 11.0952526 -12 7 C-11.87625 6.113125 -11.7525 5.22625 -11.625 4.3125 C-10.03862208 -1.55709831 -5.45930974 0 0 0 Z " fill="#181818" transform="translate(224,149)"/>
<path d="M0 0 C1.65 0 3.3 0 5 0 C6.32 5.61 7.64 11.22 9 17 C7.35 17 5.7 17 4 17 C4 15.68 4 14.36 4 13 C1.36 13 -1.28 13 -4 13 C-4.33 14.32 -4.66 15.64 -5 17 C-6.32 17 -7.64 17 -9 17 C-7.51292957 13.05157162 -5.72258983 9.38315094 -3.6875 5.6875 C-3.11386719 4.61886719 -2.54023438 3.55023438 -1.94921875 2.44921875 C-1.30597656 1.64097656 -0.66273438 0.83273438 0 0 Z " fill="#CECECE" transform="translate(189,149)"/>
<path d="M0 0 C1.98 0 3.96 0 6 0 C6.50744423 1.89385437 7.00564574 3.79018666 7.5 5.6875 C7.7784375 6.74324219 8.056875 7.79898438 8.34375 8.88671875 C8.9391715 11.71142672 9.12786492 14.12836708 9 17 C7.68 17 6.36 17 5 17 C5 15.68 5 14.36 5 13 C2.36 13 -0.28 13 -3 13 C-3.33 14.32 -3.66 15.64 -4 17 C-5.32 17 -6.64 17 -8 17 C-6.125 11.25 -6.125 11.25 -5 9 C-4.34 9 -3.68 9 -3 9 C-2.814375 7.88625 -2.814375 7.88625 -2.625 6.75 C-2.04513299 4.19858515 -1.26291261 2.2732427 0 0 Z " fill="#DBDBDB" transform="translate(232,149)"/>
<path d="M0 0 C-1.32 0.33 -2.64 0.66 -4 1 C-4 1.66 -4 2.32 -4 3 C-4.9075 3.226875 -5.815 3.45375 -6.75 3.6875 C-11.59532326 5.64426516 -13.38707032 8.62413417 -15.484375 13.33203125 C-15.90203125 14.48058594 -16.3196875 15.62914063 -16.75 16.8125 C-17.17796875 17.97394531 -17.6059375 19.13539062 -18.046875 20.33203125 C-18.36140625 21.21246094 -18.6759375 22.09289062 -19 23 C-19.66 23 -20.32 23 -21 23 C-21.268125 23.78375 -21.53625 24.5675 -21.8125 25.375 C-23 28 -23 28 -26 30 C-25.34 30.66 -24.68 31.32 -24 32 C-29.94 32.495 -29.94 32.495 -36 33 C-34.515 32.505 -34.515 32.505 -33 32 C-33 31.34 -33 30.68 -33 30 C-33.66 30 -34.32 30 -35 30 C-34.67 29.34 -34.34 28.68 -34 28 C-33.071875 27.87625 -32.14375 27.7525 -31.1875 27.625 C-27.32948337 26.86852615 -26.37788145 26.09124588 -24 23 C-22.09307956 19.68165814 -20.48801068 16.25945115 -19.10546875 12.69140625 C-15.34820858 3.21031995 -10.46450621 -1.28136811 0 0 Z " fill="#D0D0D0" transform="translate(122,49)"/>
<path d="M0 0 C1.32 0 2.64 0 4 0 C3.67 4.29 3.34 8.58 3 13 C4.65 12.34 6.3 11.68 8 11 C9.03770677 8.37633717 9.03770677 8.37633717 9.3125 5.375 C9.45300781 4.37210938 9.59351562 3.36921875 9.73828125 2.3359375 C9.82464844 1.56507813 9.91101563 0.79421875 10 0 C11.32 0 12.64 0 14 0 C13.7901589 10.72097231 13.7901589 10.72097231 10.875 14.6875 C8 17 8 17 4.3125 17.5625 C3.219375 17.376875 2.12625 17.19125 1 17 C-1.55694972 13.16457543 -1.04045639 11.34097467 -0.625 6.8125 C-0.51414062 5.54019531 -0.40328125 4.26789063 -0.2890625 2.95703125 C-0.19367188 1.98121094 -0.09828125 1.00539062 0 0 Z " fill="#E1E1E1" transform="translate(104,149)"/>
<path d="M0 0 C3.3 0 6.6 0 10 0 C10 0.99 10 1.98 10 3 C7.69 3 5.38 3 3 3 C3 4.32 3 5.64 3 7 C4.65 7 6.3 7 8 7 C8 7.99 8 8.98 8 10 C6.02 10 4.04 10 2 10 C2 11.32 2 12.64 2 14 C3.98 14 5.96 14 8 14 C8 14.99 8 15.98 8 17 C4.7 17 1.4 17 -2 17 C-1.85899143 14.72886197 -1.71203245 12.45809275 -1.5625 10.1875 C-1.48128906 8.92292969 -1.40007812 7.65835938 -1.31640625 6.35546875 C-1 3 -1 3 0 0 Z " fill="#F3F3F3" transform="translate(140,149)"/>
<path d="M0 0 C1.32 0.66 2.64 1.32 4 2 C3.01 2 2.02 2 1 2 C0.34 7.61 -0.32 13.22 -1 19 C-0.01 19 0.98 19 2 19 C1.67 19.66 1.34 20.32 1 21 C0.01 21 -0.98 21 -2 21 C-2 20.34 -2 19.68 -2 19 C-2.66 19 -3.32 19 -4 19 C-4 18.01 -4 17.02 -4 16 C-5.98 16 -7.96 16 -10 16 C-10 14.68 -10 13.36 -10 12 C-8.02 12 -6.04 12 -4 12 C-4 11.01 -4 10.02 -4 9 C-5.65 9 -7.3 9 -9 9 C-9 7.68 -9 6.36 -9 5 C-6.69 5 -4.38 5 -2 5 C-2 4.01 -2 3.02 -2 2 C-1.34 2 -0.68 2 0 2 C0 1.34 0 0.68 0 0 Z " fill="#212121" transform="translate(152,147)"/>
<path d="M0 0 C3.96 0 7.92 0 12 0 C12 0.99 12 1.98 12 3 C10.35 3 8.7 3 7 3 C6.93941406 3.84304687 6.87882813 4.68609375 6.81640625 5.5546875 C6.73261719 6.65039062 6.64882812 7.74609375 6.5625 8.875 C6.48128906 9.96554688 6.40007812 11.05609375 6.31640625 12.1796875 C6 15 6 15 5 17 C3.68 17 2.36 17 1 17 C1.66 12.38 2.32 7.76 3 3 C2.01 3 1.02 3 0 3 C0 2.01 0 1.02 0 0 Z " fill="#E7E7E7" transform="translate(170,149)"/>
<path d="M0 0 C0.99 0 1.98 0 3 0 C1.42774425 8.9370327 -1.12578298 15.88958487 -8 22 C-10 21 -10 21 -11 18 C-10.24332031 17.48953125 -9.48664063 16.9790625 -8.70703125 16.453125 C-5.53735211 13.58074622 -4.19006362 10.65111504 -2.6875 6.75 C-2.42388672 6.1003125 -2.16027344 5.450625 -1.88867188 4.78125 C-1.24622429 3.19265233 -0.62128937 1.59699122 0 0 Z " fill="#C0C0C0" transform="translate(195,96)"/>
<path d="M0 0 C1.98 0 3.96 0 6 0 C5.34 5.61 4.68 11.22 4 17 C2.02 17 0.04 17 -2 17 C-2 16.01 -2 15.02 -2 14 C-1.34 14 -0.68 14 0 14 C0 9.38 0 4.76 0 0 Z " fill="#EBEBEB" transform="translate(218,149)"/>
<path d="M0 0 C1.98 0 3.96 0 6 0 C5.34 5.61 4.68 11.22 4 17 C2.02 17 0.04 17 -2 17 C-2 16.01 -2 15.02 -2 14 C-1.34 14 -0.68 14 0 14 C0 9.38 0 4.76 0 0 Z " fill="#EEEEEE" transform="translate(63,149)"/>
<path d="M0 0 C2.13176462 3.19764693 2.26645209 4.27806975 1.60986328 7.95361328 C0.37536186 12.09596354 -1.8889788 15.72726642 -4.0625 19.4375 C-4.77116211 20.67790039 -4.77116211 20.67790039 -5.49414062 21.94335938 C-6.65287409 23.96821685 -7.82154414 25.98657866 -9 28 C-9.99 28 -10.98 28 -12 28 C-10.81221314 23.94172823 -9.22610791 20.49030967 -7.078125 16.8515625 C-3.90420515 11.40070015 -1.53101836 6.12407344 0 0 Z " fill="#DDDDDD" transform="translate(257,78)"/>
<path d="M0 0 C8.26086957 -0.31772575 8.26086957 -0.31772575 11 2 C11.75 5.125 11.75 5.125 12 8 C10.35 8 8.7 8 7 8 C7 6.68 7 5.36 7 4 C4.36 4 1.72 4 -1 4 C-1.33 5.32 -1.66 6.64 -2 8 C-3.32 8 -4.64 8 -6 8 C-5.34 6.35 -4.68 4.7 -4 3 C-3.01 3 -2.02 3 -1 3 C-0.67 2.01 -0.34 1.02 0 0 Z " fill="#EAEAEA" transform="translate(186,158)"/>
<path d="M0 0 C0.66 0.33 1.32 0.66 2 1 C1.690625 1.763125 1.38125 2.52625 1.0625 3.3125 C0.32106407 5.18789677 -0.36228217 7.08684652 -1 9 C-1.66 9 -2.32 9 -3 9 C-3.309375 9.94875 -3.61875 10.8975 -3.9375 11.875 C-5 15 -5 15 -6 17 C-6.66 17 -7.32 17 -8 17 C-8 13.37 -8 9.74 -8 6 C-6.68 5.34 -5.36 4.68 -4 4 C-2.62913085 2.70529025 -1.28659163 1.37849103 0 0 Z " fill="#151515" transform="translate(230,149)"/>
<path d="M0 0 C2.5 0.125 2.5 0.125 3.5 1.125 C3.85897436 7.58653846 3.85897436 7.58653846 1.5 11.125 C-1.625 11.3125 -1.625 11.3125 -4.5 11.125 C-4.35957123 9.47869672 -4.21250671 7.83295821 -4.0625 6.1875 C-3.98128906 5.27097656 -3.90007812 4.35445312 -3.81640625 3.41015625 C-3.37541715 0.22523499 -3.24219597 0.1621098 0 0 Z " fill="#292929" transform="translate(94.5,151.875)"/>
<path d="M0 0 C1.98 0 3.96 0 6 0 C5.88610125 1.79240663 5.75852313 3.58394835 5.625 5.375 C5.55539063 6.37273437 5.48578125 7.37046875 5.4140625 8.3984375 C5 11 5 11 3 13 C1.68 13 0.36 13 -1 13 C-0.67 8.71 -0.34 4.42 0 0 Z " fill="#101010" transform="translate(108,149)"/>
<path d="M0 0 C1.32 0 2.64 0 4 0 C3.68985608 2.08368538 3.3767948 4.16693668 3.0625 6.25 C2.88847656 7.41015625 2.71445313 8.5703125 2.53515625 9.765625 C2.1272264 12.23106961 1.66098697 14.59424562 1 17 C-0.32 17 -1.64 17 -3 17 C-3.625 15.1875 -3.625 15.1875 -4 13 C-3.34 12.01 -2.68 11.02 -2 10 C-1.56261304 8.28555111 -1.19151312 6.55332216 -0.875 4.8125 C-0.70742187 3.91144531 -0.53984375 3.01039063 -0.3671875 2.08203125 C-0.24601562 1.39496094 -0.12484375 0.70789063 0 0 Z " fill="#F0F0F0" transform="translate(83,149)"/>
<path d="M0 0 C-0.66 5.61 -1.32 11.22 -2 17 C-2.66 17 -3.32 17 -4 17 C-4.99 13.04 -5.98 9.08 -7 5 C-6.34 5 -5.68 5 -5 5 C-5.33 4.01 -5.66 3.02 -6 2 C-2.25 0 -2.25 0 0 0 Z " fill="#0F0F0F" transform="translate(202,149)"/>
<path d="M0 0 C0.66 0.33 1.32 0.66 2 1 C1.40703125 1.65355469 0.8140625 2.30710938 0.203125 2.98046875 C-2.43196597 6.59203846 -3.78262168 10.12373384 -5.25 14.3125 C-5.518125 15.05306641 -5.78625 15.79363281 -6.0625 16.55664062 C-6.71693048 18.36801071 -7.35967006 20.1835974 -8 22 C-8.99 22 -9.98 22 -11 22 C-9.00876456 12.6773977 -7.096876 6.58995628 0 0 Z " fill="#CCCCCC" transform="translate(216,50)"/>
<path d="M0 0 C1.32 0.66 2.64 1.32 4 2 C3.01 2 2.02 2 1 2 C0.67 4.31 0.34 6.62 0 9 C-0.99 9 -1.98 9 -3 9 C-3.33 9.99 -3.66 10.98 -4 12 C-4 11.01 -4 10.02 -4 9 C-5.65 9 -7.3 9 -9 9 C-9 7.68 -9 6.36 -9 5 C-6.69 5 -4.38 5 -2 5 C-2 4.01 -2 3.02 -2 2 C-1.34 2 -0.68 2 0 2 C0 1.34 0 0.68 0 0 Z " fill="#353535" transform="translate(152,147)"/>
<path d="M0 0 C0.99 0.33 1.98 0.66 3 1 C-1.67921335 6.1178896 -7.06283859 10.57857717 -14 12 C-13.67 10.35 -13.34 8.7 -13 7 C-12.01 6.938125 -12.01 6.938125 -11 6.875 C-7.19295131 5.7646108 -4.86877037 3.71409794 -1.8671875 1.1796875 C-1.25101563 0.79039062 -0.63484375 0.40109375 0 0 Z " fill="#D7D7D7" transform="translate(224,128)"/>
<path d="M0 0 C0.66 0 1.32 0 2 0 C1.67 5.61 1.34 11.22 1 17 C0.01 17 -0.98 17 -2 17 C-2.05441656 15.10448978 -2.09298035 13.2085208 -2.125 11.3125 C-2.14820312 10.25675781 -2.17140625 9.20101562 -2.1953125 8.11328125 C-1.99858729 4.97748141 -1.33057654 2.82354627 0 0 Z " fill="#292929" transform="translate(69,149)"/>
<path d="M0 0 C0.125 6.625 0.125 6.625 -1 10 C0.32 10.33 1.64 10.66 3 11 C2.67 11.66 2.34 12.32 2 13 C0.02 13 -1.96 13 -4 13 C-4.02712066 11.56260487 -4.04645067 10.12506137 -4.0625 8.6875 C-4.07410156 7.88699219 -4.08570312 7.08648437 -4.09765625 6.26171875 C-4 4 -4 4 -3 1 C-1 0 -1 0 0 0 Z " fill="#F6F6F6" transform="translate(91,153)"/>
<path d="M0 0 C0.99 0 1.98 0 3 0 C2.67 4.62 2.34 9.24 2 14 C0.68 14 -0.64 14 -2 14 C-2.1083142 9.55911765 -1.77239088 5.37688165 -1 1 C-0.67 0.67 -0.34 0.34 0 0 Z " fill="#EFEFEF" transform="translate(134,152)"/>
<path d="M0 0 C0.99 0 1.98 0 3 0 C1.43551329 5.6143991 -0.16395187 10.86810338 -3 16 C-5 13 -5 13 -4.609375 10.87890625 C-4.32578125 10.11449219 -4.0421875 9.35007812 -3.75 8.5625 C-3.47671875 7.80066406 -3.2034375 7.03882812 -2.921875 6.25390625 C-2.04421126 4.10809278 -1.06816156 2.05667949 0 0 Z " fill="#C7C7C7" transform="translate(330,96)"/>
<path d="M0 0 C-0.78375 0.61875 -1.5675 1.2375 -2.375 1.875 C-6.05337326 5.47001069 -6.36130206 10.09060538 -7 15 C-7.33 15 -7.66 15 -8 15 C-8.33 13.02 -8.66 11.04 -9 9 C-9.66 9 -10.32 9 -11 9 C-9.03329621 3.09988863 -6.66164979 -0.74018331 0 0 Z " fill="#272727" transform="translate(118,52)"/>
<path d="M0 0 C1.62463842 -0.05395478 3.24978541 -0.09277195 4.875 -0.125 C5.77992187 -0.14820313 6.68484375 -0.17140625 7.6171875 -0.1953125 C10 0 10 0 12 2 C8.96474514 4.02350324 7.80573798 4.32124018 4.3125 4.625 C3.50425781 4.69976562 2.69601563 4.77453125 1.86328125 4.8515625 C0.94095703 4.92503906 0.94095703 4.92503906 0 5 C0 3.35 0 1.7 0 0 Z " fill="#EDEDED" transform="translate(88,149)"/>
<path d="M0 0 C0.68359375 1.765625 0.68359375 1.765625 1 4 C-0.21484375 5.921875 -0.21484375 5.921875 -1.9375 7.75 C-2.50339844 8.36359375 -3.06929687 8.9771875 -3.65234375 9.609375 C-4.31943359 10.29773438 -4.31943359 10.29773438 -5 11 C-7 10 -7 10 -8 7 C-7.236875 6.401875 -6.47375 5.80375 -5.6875 5.1875 C-3.6516425 3.53040668 -1.8021721 1.89702326 0 0 Z " fill="#DADADA" transform="translate(192,107)"/>
<path d="M0 0 C1.32 0 2.64 0 4 0 C3.01 6.27 2.02 12.54 1 19 C-1.57860235 15.13209648 -1.01114505 12.23386085 -0.625 7.8125 C-0.56828125 7.06291016 -0.5115625 6.31332031 -0.453125 5.54101562 C-0.31189331 3.69323441 -0.15723833 1.846488 0 0 Z " fill="#202020" transform="translate(137,147)"/>
<path d="M0 0 C1.65 0 3.3 0 5 0 C4.67 3.63 4.34 7.26 4 11 C1.327664 7.43688534 0.22736029 5.15414253 -1 1 C-0.67 0.67 -0.34 0.34 0 0 Z " fill="#151515" transform="translate(159,149)"/>
<path d="M0 0 C0 0.66 0 1.32 0 2 C0.66 2.66 1.32 3.32 2 4 C-3.94 4.495 -3.94 4.495 -10 5 C-9.01 4.67 -8.02 4.34 -7 4 C-7 3.34 -7 2.68 -7 2 C-7.66 2 -8.32 2 -9 2 C-8.67 1.34 -8.34 0.68 -8 0 C-2.55072464 -1.27536232 -2.55072464 -1.27536232 0 0 Z " fill="#BDBDBD" transform="translate(96,77)"/>
<path d="M0 0 C0.66 0.33 1.32 0.66 2 1 C1.01958581 3.45103548 0.3486182 4.76758786 -1.875 6.25 C-4 7 -4 7 -8 7 C-7.67 5.68 -7.34 4.36 -7 3 C-5.68 3 -4.36 3 -3 3 C-2.67 2.34 -2.34 1.68 -2 1 C-1.34 0.67 -0.68 0.34 0 0 Z " fill="#1A1A1A" transform="translate(96,71)"/>
<path d="M0 0 C0.99 0 1.98 0 3 0 C2.25531915 7.74468085 2.25531915 7.74468085 -1 11 C-1.66 11 -2.32 11 -3 11 C-2.01 7.37 -1.02 3.74 0 0 Z " fill="#CACACA" transform="translate(122,97)"/>
<path d="M0 0 C0.33 0.66 0.66 1.32 1 2 C3.31 2 5.62 2 8 2 C8 2.99 8 3.98 8 5 C4.7 5 1.4 5 -2 5 C-1 1 -1 1 0 0 Z " fill="#FCFCFC" transform="translate(140,161)"/>
<path d="M0 0 C0.66 0.66 1.32 1.32 2 2 C1.9765625 4.8203125 1.9765625 4.8203125 1.625 8.125 C1.51414062 9.22070312 1.40328125 10.31640625 1.2890625 11.4453125 C1.19367188 12.28835937 1.09828125 13.13140625 1 14 C0.01 14 -0.98 14 -2 14 C-1.03644647 4.58997722 -1.03644647 4.58997722 0 0 Z " fill="#424242" transform="translate(86,152)"/>
<path d="M0 0 C0.33 0 0.66 0 1 0 C1.33 3.3 1.66 6.6 2 10 C0.68 9.34 -0.64 8.68 -2 8 C-4.19747131 8.29805007 -4.19747131 8.29805007 -6 9 C-5.02501855 7.4972763 -4.04490611 5.99788037 -3.0625 4.5 C-2.51722656 3.6646875 -1.97195312 2.829375 -1.41015625 1.96875 C-0.94480469 1.3190625 -0.47945312 0.669375 0 0 Z " fill="#2A2A2A" transform="translate(165,105)"/>
<path d="M0 0 C0.99 0 1.98 0 3 0 C3.66 1.65 4.32 3.3 5 5 C3.625 6.5 3.625 6.5 2 8 C1.34 8 0.68 8 0 8 C0 5.36 0 2.72 0 0 Z " fill="#101010" transform="translate(204,160)"/>
<path d="M0 0 C0.33 0 0.66 0 1 0 C1 2.97 1 5.94 1 9 C0.01 8.67 -0.98 8.34 -2 8 C-2.99 8.99 -3.98 9.98 -5 11 C-5.66 10.67 -6.32 10.34 -7 10 C-6.57847656 9.44570312 -6.15695312 8.89140625 -5.72265625 8.3203125 C-5.17480469 7.59585938 -4.62695312 6.87140625 -4.0625 6.125 C-3.51722656 5.40570313 -2.97195313 4.68640625 -2.41015625 3.9453125 C-0.96035376 2.05642921 -0.96035376 2.05642921 0 0 Z " fill="#252525" transform="translate(300,104)"/>
<path d="M0 0 C2.475 0.99 2.475 0.99 5 2 C4.34 3.98 3.68 5.96 3 8 C2.01 8 1.02 8 0 8 C0 5.36 0 2.72 0 0 Z " fill="#272727" transform="translate(242,98)"/>
<path d="M0 0 C2 3 2 3 1.8125 6.5625 C1 10 1 10 -2 12 C-1 3.42857143 -1 3.42857143 0 0 Z " fill="#D5D5D5" transform="translate(257,78)"/>
<path d="M0 0 C2 2 2 2 2.1953125 3.9453125 C2.13020833 5.96354167 2.06510417 7.98177083 2 10 C1.34 9.34 0.68 8.68 0 8 C-0.99 8.495 -0.99 8.495 -2 9 C-2.66 8.34 -3.32 7.68 -4 7 C-3.525625 6.401875 -3.05125 5.80375 -2.5625 5.1875 C-0.83534256 2.99617076 -0.83534256 2.99617076 0 0 Z " fill="#C9C9C9" transform="translate(165,99)"/>
<path d="M0 0 C1.39195915 4.17587745 -0.17676781 6.13474776 -2 10 C-2.66 10 -3.32 10 -4 10 C-3.38461538 3.47692308 -3.38461538 3.47692308 -1.4375 1.0625 C-0.7259375 0.5365625 -0.7259375 0.5365625 0 0 Z " fill="#E5E5E5" transform="translate(107,56)"/>
<path d="M0 0 C2 2 2 2 2.125 4.625 C2.08375 5.40875 2.0425 6.1925 2 7 C1.34 7 0.68 7 0 7 C-0.66 7.66 -1.32 8.32 -2 9 C-2.66 9 -3.32 9 -4 9 C-2.94124926 5.59687262 -1.99097846 2.98646769 0 0 Z " fill="#CFCFCF" transform="translate(300,99)"/>
<path d="M0 0 C1.3271261 3.9813783 1.06915913 7.85045227 1 12 C0.01 12 -0.98 12 -2 12 C-1.85831863 10.56208484 -1.71148957 9.1246763 -1.5625 7.6875 C-1.48128906 6.88699219 -1.40007812 6.08648437 -1.31640625 5.26171875 C-1 3 -1 3 0 0 Z " fill="#303030" transform="translate(326,77)"/>
<path d="M0 0 C0 1.98 0 3.96 0 6 C-0.99 6.33 -1.98 6.66 -3 7 C-3.66 6.67 -4.32 6.34 -5 6 C-2.84615385 0 -2.84615385 0 0 0 Z " fill="#111111" transform="translate(110,60)"/>
<path d="M0 0 C1.25541557 3.76624671 0.37061958 5.37188934 -1 9 C-1.99 9 -2.98 9 -4 9 C-3.71848913 7.68528432 -3.42446661 6.37324233 -3.125 5.0625 C-2.96257812 4.33160156 -2.80015625 3.60070312 -2.6328125 2.84765625 C-2 1 -2 1 0 0 Z " fill="#E5E5E5" transform="translate(209,63)"/>
<path d="M0 0 C0.99 0.33 1.98 0.66 3 1 C2.34 2.32 1.68 3.64 1 5 C0.67 4.67 0.34 4.34 0 4 C-0.66 4.66 -1.32 5.32 -2 6 C-2.99 5.34 -3.98 4.68 -5 4 C-3.35 3.34 -1.7 2.68 0 2 C0 1.34 0 0.68 0 0 Z " fill="#2E2E2E" transform="translate(357,114)"/>
<path d="M0 0 C1.27351308 2.54702616 0.80191925 3.4282945 0.0625 6.125 C-0.13214844 6.84945312 -0.32679687 7.57390625 -0.52734375 8.3203125 C-0.68332031 8.87460938 -0.83929688 9.42890625 -1 10 C-2.5 8.6875 -2.5 8.6875 -4 7 C-4 6.01 -4 5.02 -4 4 C-3.34 4 -2.68 4 -2 4 C-1.34 2.68 -0.68 1.36 0 0 Z " fill="#282828" transform="translate(68,78)"/>
<path d="M0 0 C2.475 0.495 2.475 0.495 5 1 C5 1.99 5 2.98 5 4 C3.35 4 1.7 4 0 4 C0 2.68 0 1.36 0 0 Z " fill="#363636" transform="translate(205,152)"/>
<path d="M0 0 C0.66 0 1.32 0 2 0 C2.33 1.32 2.66 2.64 3 4 C4.32 4.33 5.64 4.66 7 5 C4.69 5.33 2.38 5.66 0 6 C0 4.02 0 2.04 0 0 Z " fill="#3D3D3D" transform="translate(122,156)"/>
<path d="M0 0 C0.66 0 1.32 0 2 0 C2 0.66 2 1.32 2 2 C2.66 2 3.32 2 4 2 C3.34 3.32 2.68 4.64 2 6 C1.34 6 0.68 6 0 6 C-0.38218767 4.34385343 -0.71395102 2.67542976 -1 1 C-0.67 0.67 -0.34 0.34 0 0 Z " fill="#DFDFDF" transform="translate(78,156)"/>
<path d="M0 0 C0.99 0.99 1.98 1.98 3 3 C2 6 2 6 -0.0625 7.1875 C-0.701875 7.455625 -1.34125 7.72375 -2 8 C-1.34 5.36 -0.68 2.72 0 0 Z " fill="#252525" transform="translate(291,74)"/>
<path d="M0 0 C0.66 0 1.32 0 2 0 C1.625 2.9375 1.625 2.9375 1 6 C0.01 6.495 0.01 6.495 -1 7 C-1.625 4.625 -1.625 4.625 -2 2 C-1.34 1.34 -0.68 0.68 0 0 Z " fill="#D6D6D6" transform="translate(327,105)"/>
<path d="M0 0 C0.66 0.33 1.32 0.66 2 1 C2 3.31 2 5.62 2 8 C1.01 8 0.02 8 -1 8 C-0.67 5.36 -0.34 2.72 0 0 Z " fill="#141414" transform="translate(323,88)"/>
</svg>
