<?xml version="1.0" encoding="UTF-8"?>
<svg version="1.1" xmlns="http://www.w3.org/2000/svg" width="500" height="180">
<path d="M0 0 C165 0 330 0 500 0 C500 59.4 500 118.8 500 180 C335 180 170 180 0 180 C0 120.6 0 61.2 0 0 Z " fill="#FDFDFD" transform="translate(0,0)"/>
<path d="M0 0 C1.6875 1.1875 1.6875 1.1875 3.6875 4.1875 C4.0175 3.1975 4.3475 2.2075 4.6875 1.1875 C10.9575 0.8575 17.2275 0.5275 23.6875 0.1875 C22.46431443 4.74175069 21.23872268 9.2952162 20.00708008 13.84716797 C19.5896637 15.39268877 19.17362083 16.93858126 18.7590332 18.48486328 C18.15946095 20.72009173 17.5547987 22.95389269 16.94921875 25.1875 C16.76783859 25.86804443 16.58645844 26.54858887 16.39958191 27.24975586 C15.27584714 31.37153161 13.93893511 35.34373718 12.3782959 39.32125854 C11.17016596 42.58512009 10.33557959 45.93766882 9.5 49.3125 C9.32275391 49.98925781 9.14550781 50.66601562 8.96289062 51.36328125 C7.95419386 55.39027913 7.50018517 59.04073721 7.6875 63.1875 C9.57408874 63.22275132 9.57408874 63.22275132 11.6875 62.1875 C14.61685668 57.74908079 16.68197354 53.10103982 18.6875 48.1875 C19.3475 48.1875 20.0075 48.1875 20.6875 48.1875 C20.37567931 49.60431634 20.06301263 51.02094651 19.75 52.4375 C19.48896484 53.62085937 19.48896484 53.62085937 19.22265625 54.828125 C18.739944 56.95628703 18.22586822 59.07282842 17.6875 61.1875 C17.0275 61.1875 16.3675 61.1875 15.6875 61.1875 C15.5225 61.93 15.3575 62.6725 15.1875 63.4375 C12.96258128 67.51651765 10.04870052 68.82778906 5.6875 70.1875 C2.22668848 70.75467397 -0.86662237 70.89206948 -4.3125 70.1875 C-7.13674288 67.99727082 -8.72758603 66.35732793 -10.3125 63.1875 C-10.352492 61.18789988 -10.35596799 59.18702758 -10.3125 57.1875 C-10.9725 57.1875 -11.6325 57.1875 -12.3125 57.1875 C-12.5909375 58.239375 -12.5909375 58.239375 -12.875 59.3125 C-15.34819 64.25888 -19.78361615 67.1682441 -24.3125 70.1875 C-30.13968215 70.91781966 -35.52194393 71.44088925 -40.4375 68 C-41.05625 67.071875 -41.675 66.14375 -42.3125 65.1875 C-42.83714844 64.42824219 -43.36179688 63.66898437 -43.90234375 62.88671875 C-47.39292739 56.20529687 -45.73193332 47.72948071 -43.75 40.75 C-37.82553461 23.65544883 -28.88120294 8.58380216 -12.3125 0.1875 C-8.13445172 -1.20518276 -4.20245034 -1.47653661 0 0 Z " fill="#080808" transform="translate(176.3125,50.8125)"/>
<path d="M0 0 C0 0.66 0 1.32 0 2 C0.99 2.33 1.98 2.66 3 3 C3.66 3.99 4.32 4.98 5 6 C5.33 4.68 5.66 3.36 6 2 C12.27 1.34 18.54 0.68 25 0 C24.18562115 3.2575154 23.29069507 6.44907847 22.328125 9.6640625 C21.99578857 10.77797363 21.66345215 11.89188477 21.32104492 13.03955078 C20.9676001 14.22274902 20.61415527 15.40594727 20.25 16.625 C17.6071768 25.4966179 15.02044324 34.37681324 12.59399414 43.31005859 C11.58210788 47.00904065 10.47494347 50.63800581 9.1875 54.25 C8.0752801 57.76227337 7.71927671 60.35059718 8 64 C10.42098431 63.87340588 10.42098431 63.87340588 13 63 C14.61533634 60.85846423 14.61533634 60.85846423 15.6875 58.1875 C16.08324219 57.31480469 16.47898437 56.44210938 16.88671875 55.54296875 C17.25410156 54.70378906 17.62148438 53.86460938 18 53 C18.65856283 51.66264544 19.32221494 50.32771595 20 49 C20.66 49 21.32 49 22 49 C19.91772024 57.86546381 17.80800844 64.59445569 10 70 C5.36990933 71.54336356 0.83045189 71.62375205 -4 71 C-8.31333414 67.6334953 -8.95218788 63.15174294 -10 58 C-10.52787109 58.77923828 -10.52787109 58.77923828 -11.06640625 59.57421875 C-17.70538591 68.95199419 -17.70538591 68.95199419 -23 71 C-28.66481945 71.79125414 -33.88443622 72.40641968 -38.78515625 69.1484375 C-43.46998943 64.60406669 -44.20909791 60.18651114 -44.4375 53.875 C-43.99138545 36.94204336 -35.38357477 21.65072281 -23.8046875 9.7421875 C-16.60150505 2.9405762 -10.01230401 -0.72816756 0 0 Z " fill="#090909" transform="translate(310,50)"/>
<path d="M0 0 C-1.72766472 7.41631685 -3.78328086 14.67540694 -6.09033203 21.92700195 C-7.84653701 27.45937651 -9.45374291 33.02604264 -11.02734375 38.61328125 C-12.01417733 42.04936442 -13.0607039 45.46218336 -14.125 48.875 C-15.24192553 52.46230198 -16.29947292 56.03672202 -17.1875 59.6875 C-18 63 -18 63 -19 65 C-14.09234662 63.33178581 -10.12804815 61.65178479 -7.140625 57.27734375 C-5.64210912 54.22237968 -4.28473251 51.1504587 -3 48 C-0.49987061 42.26662058 1.59313139 38.39254501 7 35 C12.25669494 34.12388418 15.79463134 35.51235286 20.3984375 37.83203125 C22 39 22 39 23 42 C23.41873961 46.30013364 23.4550224 49.93069736 21.75 53.9375 C18.84268835 57.36397444 16.97230612 57.89582434 12.5 58.375 C9 58 9 58 6.5625 56.5 C4.79563676 53.67301882 4.32320055 51.4424594 4.4609375 48.10546875 C5.45069746 44.23966717 8.17347002 41.69193331 11 39 C9.35 39 7.7 39 6 39 C5.63648438 39.66644531 5.27296875 40.33289062 4.8984375 41.01953125 C3.84036577 42.95932941 2.7803284 44.89805618 1.71875 46.8359375 C0.59985849 48.89571505 -0.50509438 50.96314566 -1.59375 53.0390625 C-2.0990625 53.99554688 -2.604375 54.95203125 -3.125 55.9375 C-3.58132812 56.81277344 -4.03765625 57.68804687 -4.5078125 58.58984375 C-6.09009906 61.14552649 -7.72945002 63.03492562 -10 65 C-10.66 65 -11.32 65 -12 65 C-12 65.66 -12 66.32 -12 67 C-10.80375 66.95875 -9.6075 66.9175 -8.375 66.875 C-3.39282342 66.89260486 0.36444648 67.67387553 4.3125 70.875 C8.25058828 75.83407412 7.2269691 81.94309255 6.5625 87.96484375 C6.37975743 89.28972741 6.19223155 90.61395983 6 91.9375 C5.90460938 92.62134766 5.80921875 93.30519531 5.7109375 94.00976562 C5.47820863 95.67377707 5.23971452 97.33698053 5 99 C7.97 98.505 7.97 98.505 11 98 C11.268125 97.195625 11.53625 96.39125 11.8125 95.5625 C13.20833333 91.375 14.60416667 87.1875 16 83 C16.99 83 17.98 83 19 83 C17.62877795 91.77582114 14.45746167 97.9614788 8 104 C3.60076137 106.85356019 -1.91112387 106.55150382 -7 106 C-10.0625 104.6875 -10.0625 104.6875 -12 103 C-14.0937814 96.71865581 -13.26573838 90.40344783 -11.4453125 84.16015625 C-10.55393468 79.83619193 -10.85465406 75.39267731 -11 71 C-14.13498292 69.14223235 -16.37471432 68.79859524 -20 69 C-20.30292969 70.10214844 -20.60585937 71.20429687 -20.91796875 72.33984375 C-23.83790446 82.92681388 -26.87700806 93.47105576 -30 104 C-35.94 104 -41.88 104 -48 104 C-47.03460679 97.5392916 -45.94098761 91.59609167 -43.8137207 85.43383789 C-42.08489355 80.26291742 -40.70441785 74.98184258 -39.25 69.72851562 C-37.92249936 65.00275164 -36.44327734 60.42838577 -34.66992188 55.8527832 C-33.60894782 52.9184785 -32.94569324 49.91373558 -32.25 46.875 C-30.37290491 38.92056767 -27.89388666 31.19336104 -25.28613281 23.45068359 C-24.84285645 22.10804443 -24.84285645 22.10804443 -24.390625 20.73828125 C-24.12282227 19.94462158 -23.85501953 19.15096191 -23.57910156 18.33325195 C-22.93450134 15.73610005 -22.68626625 13.66255003 -23 11 C-25.91765 9.0549 -27.62537285 8.54723683 -31 8 C-31 7.01 -31 6.02 -31 5 C-30.40574219 4.95512451 -29.81148437 4.91024902 -29.19921875 4.86401367 C-26.46504887 4.65060597 -23.73268018 4.41917582 -21 4.1875 C-20.06542969 4.11724609 -19.13085938 4.04699219 -18.16796875 3.97460938 C-12.10335301 3.44448562 -5.71683389 0 0 0 Z " fill="#080808" transform="translate(106,16)"/>
<path d="M0 0 C3.35141886 1.5843071 4.19377134 1.99563966 6 5 C9.59667633 15.16518267 10.03878293 26.71340953 11.30859375 37.359375 C12.10143416 47.47116869 12.10143416 47.47116869 15 57 C21.44704091 46.78664654 26.19753993 36.779446 29 25 C28.34 25 27.68 25 27 25 C27 24.34 27 23.68 27 23 C26.39671875 22.74476562 25.7934375 22.48953125 25.171875 22.2265625 C21.45192947 20.12572995 19.71044911 16.83167538 18 13 C17.28130411 9.89135509 17.46227393 8.28012903 18 5 C19.99999337 2.00000994 21.39916163 0.38673719 24.97265625 -0.4765625 C28.47095125 -0.72503953 30.63642487 -0.25450259 33.5 1.75 C38.00442567 11.50958896 34.00877566 23.24458403 31 33 C29.82683496 36.09645791 28.47471358 39.03843529 27 42 C26.40794979 43.35037835 25.82398278 44.70434356 25.25 46.0625 C24.63125 47.5165625 24.63125 47.5165625 24 49 C23.34 49 22.68 49 22 49 C21.65001953 50.27230469 21.65001953 50.27230469 21.29296875 51.5703125 C19.82648733 55.46025415 17.76099235 58.56077768 15.3125 61.875 C14.86841797 62.4848877 14.42433594 63.09477539 13.96679688 63.72314453 C6.66171003 73.65036753 6.66171003 73.65036753 3 77 C2.34 77 1.68 77 1 77 C1 77.66 1 78.32 1 79 C-8.5949501 87.01603426 -20.03152224 94.90869658 -33.046875 94.33984375 C-35 94 -35 94 -37.5625 92.5 C-39.74510377 88.70416736 -39.55302077 86.35503854 -39 82 C-37.5625 80 -37.5625 80 -35 79 C-30.70318958 78.43884939 -27.17551415 78.47754927 -23.1875 80.25 C-20.95382639 82.03693889 -18.94877498 83.90687132 -17 86 C-10.68902614 84.54362142 -5.53448771 80.53448771 -1 76 C-1.06194606 66.70809045 -2.84418622 57.57833075 -4.54101562 48.47802734 C-7.09342235 34.69774636 -9.46303554 20.93379624 -11 7 C-13.46683539 7.48308154 -13.46683539 7.48308154 -16 9 C-17.18983959 11.45018819 -18.03607197 13.55387767 -18.8125 16.125 C-19.02841797 16.78371094 -19.24433594 17.44242188 -19.46679688 18.12109375 C-19.99529323 19.7418159 -20.50001357 21.370257 -21 23 C-21.99 23 -22.98 23 -24 23 C-22.00484471 14.75833049 -19.8591981 7.49165542 -13.375 1.625 C-8.77029343 -0.59208094 -5.01786663 -0.8730272 0 0 Z " fill="#080808" transform="translate(229,51)"/>
<path d="M0 0 C-1.22178551 4.55458959 -2.44878181 9.10773278 -3.68041992 13.65966797 C-4.0978363 15.20518877 -4.51387917 16.75108126 -4.9284668 18.29736328 C-5.52803905 20.53259173 -6.1327013 22.76639269 -6.73828125 25 C-6.91966141 25.68054443 -7.10104156 26.36108887 -7.28791809 27.06225586 C-8.41165286 31.18403161 -9.74856489 35.15623718 -11.3092041 39.13375854 C-12.51733404 42.39762009 -13.35192041 45.75016882 -14.1875 49.125 C-14.36474609 49.80175781 -14.54199219 50.47851562 -14.72460938 51.17578125 C-15.73330614 55.20277913 -16.18731483 58.85323721 -16 63 C-14.11341126 63.03525132 -14.11341126 63.03525132 -12 62 C-9.07064332 57.56158079 -7.00552646 52.91353982 -5 48 C-4.34 48 -3.68 48 -3 48 C-3.31182069 49.41681634 -3.62448737 50.83344651 -3.9375 52.25 C-4.11152344 53.03890625 -4.28554687 53.8278125 -4.46484375 54.640625 C-4.947556 56.76878703 -5.46163178 58.88532842 -6 61 C-6.66 61 -7.32 61 -8 61 C-8.165 61.7425 -8.33 62.485 -8.5 63.25 C-10.72491872 67.32901765 -13.63879948 68.64028906 -18 70 C-21.45423453 70.5660961 -24.59854558 70.89336731 -28 70 C-31.7763281 67.24920938 -32.87274986 65.74703315 -33.6640625 61.1015625 C-33.68496491 59.60946459 -33.6701604 58.1165608 -33.625 56.625 C-33.61170654 55.82989014 -33.59841309 55.03478027 -33.5847168 54.21557617 C-33.26762851 46.17277232 -30.91680313 39.4856709 -28 32 C-27.05198468 29.21841765 -26.15177294 26.42186597 -25.25 23.625 C-23.12307692 17.12307692 -23.12307692 17.12307692 -22 16 C-21.62723135 14.04878907 -21.30135385 12.0885087 -21 10.125 C-20.50837067 6.93709107 -20.02094276 4.06282827 -19 1 C-17.3338256 0.82848205 -15.66702161 0.6630782 -14 0.5 C-12.6078125 0.36078125 -12.6078125 0.36078125 -11.1875 0.21875 C-7.44439157 -0.03812999 -3.75193436 -0.01349617 0 0 Z " fill="#070707" transform="translate(200,51)"/>
<path d="M0 0 C-0.78250787 3.25658523 -1.71130109 6.45574565 -2.671875 9.6640625 C-3.00421143 10.77797363 -3.33654785 11.89188477 -3.67895508 13.03955078 C-4.0323999 14.22274902 -4.38584473 15.40594727 -4.75 16.625 C-7.3928232 25.4966179 -9.97955676 34.37681324 -12.40600586 43.31005859 C-13.41789212 47.00904065 -14.52505653 50.63800581 -15.8125 54.25 C-16.9247199 57.76227337 -17.28072329 60.35059718 -17 64 C-14.57901569 63.87340588 -14.57901569 63.87340588 -12 63 C-10.38466366 60.85846423 -10.38466366 60.85846423 -9.3125 58.1875 C-8.91675781 57.31480469 -8.52101563 56.44210938 -8.11328125 55.54296875 C-7.56220703 54.28419922 -7.56220703 54.28419922 -7 53 C-6.34143717 51.66264544 -5.67778506 50.32771595 -5 49 C-4.34 49 -3.68 49 -3 49 C-5.08227976 57.86546381 -7.19199156 64.59445569 -15 70 C-19.61279747 71.53759916 -24.1884604 71.66366063 -29 71 C-32.2278891 68.07952891 -33.90397561 65.47237405 -34.1875 61.125 C-34.00847562 51.17124468 -31.20376369 41.73538941 -28.0625 32.375 C-27.36505683 30.25808531 -26.66843167 28.14090092 -25.97265625 26.0234375 C-25.6389502 25.01249023 -25.30524414 24.00154297 -24.96142578 22.95996094 C-23.14038886 17.35349785 -21.39757458 11.72799739 -20 6 C-19.5 4 -19.5 4 -19 2 C-16.20849551 1.66525856 -13.41681356 1.33214502 -10.625 1 C-9.43390625 0.85691406 -9.43390625 0.85691406 -8.21875 0.7109375 C-2.2265625 0 -2.2265625 0 0 0 Z " fill="#060606" transform="translate(335,50)"/>
<path d="M0 0 C2.85442339 1.05002003 5.53626542 2.20327649 8 4 C9.67650158 9.02950475 9.83918473 14.02791589 7.75 18.9375 C4.84268835 22.36397444 2.97230612 22.89582434 -1.5 23.375 C-5 23 -5 23 -7.4375 21.5 C-9.20436324 18.67301882 -9.67679945 16.4424594 -9.5390625 13.10546875 C-8.54930254 9.23966717 -5.82652998 6.69193331 -3 4 C-4.65 4 -6.3 4 -8 4 C-8.36351563 4.66644531 -8.72703125 5.33289062 -9.1015625 6.01953125 C-10.15963423 7.95932941 -11.2196716 9.89805618 -12.28125 11.8359375 C-13.40014151 13.89571505 -14.50509438 15.96314566 -15.59375 18.0390625 C-16.0990625 18.99554688 -16.604375 19.95203125 -17.125 20.9375 C-17.58132812 21.81277344 -18.03765625 22.68804687 -18.5078125 23.58984375 C-20.09009906 26.14552649 -21.72945002 28.03492562 -24 30 C-24.66 30 -25.32 30 -26 30 C-26 30.66 -26 31.32 -26 32 C-24.80375 31.95875 -23.6075 31.9175 -22.375 31.875 C-17.39282342 31.89260486 -13.63555352 32.67387553 -9.6875 35.875 C-5.74941172 40.83407412 -6.7730309 46.94309255 -7.4375 52.96484375 C-7.62024257 54.28972741 -7.80776845 55.61395983 -8 56.9375 C-8.09539062 57.62134766 -8.19078125 58.30519531 -8.2890625 59.00976562 C-8.52179137 60.67377707 -8.76028548 62.33698053 -9 64 C-6.03 63.505 -6.03 63.505 -3 63 C-2.731875 62.195625 -2.46375 61.39125 -2.1875 60.5625 C-0.79166667 56.375 0.60416667 52.1875 2 48 C2.99 48 3.98 48 5 48 C3.62877795 56.77582114 0.45746167 62.9614788 -6 69 C-10.39923863 71.85356019 -15.91112387 71.55150382 -21 71 C-24.0625 69.6875 -24.0625 69.6875 -26 68 C-28.0937814 61.71865581 -27.26573838 55.40344783 -25.4453125 49.16015625 C-24.55393468 44.83619193 -24.85465406 40.39267731 -25 36 C-27.97 35.01 -30.94 34.02 -34 33 C-33.01 32.505 -33.01 32.505 -32 32 C-31.67 31.01 -31.34 30.02 -31 29 C-29.783125 28.525625 -28.56625 28.05125 -27.3125 27.5625 C-21.21423108 24.7370051 -19.5052592 18.87830398 -17 13 C-13.52624408 5.08035498 -9.89102481 -1.5348142 0 0 Z " fill="#090909" transform="translate(120,51)"/>
<path d="M0 0 C2.8125 0.75 2.8125 0.75 3.8125 1.75 C4.67711267 9.96382037 2.10813881 16.94685493 -0.48193359 24.60644531 C-1.18255333 26.7349717 -1.828363 28.87265248 -2.45703125 31.0234375 C-4.61474022 38.37537772 -6.79926976 45.37661799 -11.1875 51.75 C-11.661875 52.4409375 -12.13625 53.131875 -12.625 53.84375 C-14.05048219 55.71469537 -15.34823299 57.28411802 -17.1875 58.75 C-20.5625 59.1875 -20.5625 59.1875 -23.1875 58.75 C-27.58373869 49.95752262 -23.38703151 35.67861344 -20.58544922 26.85351562 C-17.62366471 18.07687181 -11.13243703 -0.87313232 0 0 Z " fill="#F7F7F7" transform="translate(309.1875,55.25)"/>
<path d="M0 0 C0.928125 0.165 1.85625 0.33 2.8125 0.5 C5.60158282 4.68362424 5.35905361 8.66817787 4.43261719 13.46826172 C3.90933543 15.48061031 3.31723183 17.45591871 2.6875 19.4375 C2.35298828 20.52514648 2.35298828 20.52514648 2.01171875 21.63476562 C1.29629692 23.92925387 0.55872384 26.21535489 -0.1875 28.5 C-0.55633301 29.63526123 -0.55633301 29.63526123 -0.93261719 30.79345703 C-8.37876072 53.44822706 -8.37876072 53.44822706 -16.1875 59.5 C-18.875 59.9375 -18.875 59.9375 -21.1875 59.5 C-23.92192528 56.76557472 -23.51889299 55.20369544 -23.5625 51.375 C-23.3008932 34.35311742 -16.96374226 15.27762336 -5.6875 2.375 C-3.1875 0.5 -3.1875 0.5 0 0 Z " fill="#F6F6F6" transform="translate(173.1875,54.5)"/>
<path d="M0 0 C2.5 1.75 2.5 1.75 4 5 C5.90614196 17.40977839 1.47511747 31.00470236 -4 42 C-4.59205021 43.35037835 -5.17601722 44.70434356 -5.75 46.0625 C-6.1625 47.031875 -6.575 48.00125 -7 49 C-7.66 49 -8.32 49 -9 49 C-9.66 50.98 -10.32 52.96 -11 55 C-11.99 55 -12.98 55 -14 55 C-12.47596691 50.95107627 -10.57184966 47.2035673 -8.5625 43.375 C-5.50164536 37.4239968 -3.40731827 31.56748526 -2 25 C-2.66 25 -3.32 25 -4 25 C-4 24.34 -4 23.68 -4 23 C-4.60328125 22.74476562 -5.2065625 22.48953125 -5.828125 22.2265625 C-9.54807053 20.12572995 -11.28955089 16.83167538 -13 13 C-13.71869589 9.89135509 -13.53772607 8.28012903 -13 5 C-9.35552618 -0.46671073 -6.13957123 -0.97453512 0 0 Z " fill="#0C0C0C" transform="translate(260,51)"/>
<path d="M0 0 C2.47118784 2.94641627 2.625 5.1311779 2.625 8.9375 C0.27000326 13.74169335 -2.62006584 16.51341592 -7.375 18.9375 C-11.33661486 19.48392964 -13.38421172 19.5893344 -16.75 17.375 C-18.86091298 14.20863054 -19.16922887 11.70997076 -19.375 7.9375 C-19.045 6.9475 -18.715 5.9575 -18.375 4.9375 C-17.715 4.9375 -17.055 4.9375 -16.375 4.9375 C-16.375 4.2775 -16.375 3.6175 -16.375 2.9375 C-12.46760384 -1.94674519 -5.56672564 -2.49037726 0 0 Z " fill="#0C0C0C" transform="translate(357.375,103.0625)"/>
<path d="M0 0 C2 3 2 3 2 5 C2.99 5.33 3.98 5.66 5 6 C4.01 6 3.02 6 2 6 C2 6.99 2 7.98 2 9 C2.66 9.33 3.32 9.66 4 10 C3.34 10 2.68 10 2 10 C2 10.66 2 11.32 2 12 C-7.5949501 20.01603426 -19.03152224 27.90869658 -32.046875 27.33984375 C-34 27 -34 27 -36.5625 25.5 C-38.74510377 21.70416736 -38.55302077 19.35503854 -38 15 C-36.5625 13 -36.5625 13 -34 12 C-29.70318958 11.43884939 -26.17551415 11.47754927 -22.1875 13.25 C-19.95382639 15.03693889 -17.94877498 16.90687132 -16 19 C-9.68902614 17.54362142 -4.53448771 13.53448771 0 9 C0.07179964 7.48071962 0.08392007 5.95832518 0.0625 4.4375 C0.05347656 3.61121094 0.04445312 2.78492187 0.03515625 1.93359375 C0.02355469 1.29550781 0.01195312 0.65742187 0 0 Z " fill="#0B0B0B" transform="translate(228,118)"/>
<path d="M0 0 C3.23295482 0.84056825 5.44844346 1.82420086 8.125 3.8125 C9.80150158 8.84200475 9.96418473 13.84041589 7.875 18.75 C4.96768835 22.17647444 3.09730612 22.70832434 -1.375 23.1875 C-4.875 22.8125 -4.875 22.8125 -7.3125 21.3125 C-9.08486568 18.47671492 -9.61393453 16.19297014 -9.4765625 12.83984375 C-8.50002855 9.54879752 -6.23387696 8.06148598 -3.50390625 6.13671875 C-1.57668271 4.81195984 -1.57668271 4.81195984 -0.875 1.8125 C-2.525 1.8125 -4.175 1.8125 -5.875 1.8125 C-2.875 -0.1875 -2.875 -0.1875 0 0 Z " fill="#070707" transform="translate(119.875,51.1875)"/>
<path d="M0 0 C7.97002725 -0.61307902 7.97002725 -0.61307902 11.625 1.5625 C13 4 13 4 13.0625 7.375 C11.76206953 11.81176276 10.52872613 13.98587977 7 17 C3.9328298 17.48807566 1.07617005 17.36190236 -2 17 C-1.85899143 14.72886197 -1.71203245 12.45809275 -1.5625 10.1875 C-1.48128906 8.92292969 -1.40007812 7.65835938 -1.31640625 6.35546875 C-1 3 -1 3 0 0 Z " fill="#191919" transform="translate(89,151)"/>
<path d="M0 0 C1.32 0 2.64 0 4 0 C4 0.99 4 1.98 4 3 C4.66 3 5.32 3 6 3 C6.33 4.32 6.66 5.64 7 7 C7.78375 6.21625 8.5675 5.4325 9.375 4.625 C10.91666667 3.08333333 12.45833333 1.54166667 14 0 C15.32 0 16.64 0 18 0 C17.34 5.61 16.68 11.22 16 17 C14.68 17 13.36 17 12 17 C12 14.03 12 11.06 12 8 C11.01 8.99 10.02 9.98 9 11 C7.68 11 6.36 11 5 11 C4.67 9.68 4.34 8.36 4 7 C3.34 7 2.68 7 2 7 C1.67 10.3 1.34 13.6 1 17 C0.01 17 -0.98 17 -2 17 C-2.21824777 10.9981863 -1.5056904 5.80766296 0 0 Z " fill="#2B2B2B" transform="translate(120,151)"/>
<path d="M0 0 C1.32 0 2.64 0 4 0 C5.65 2.97 7.3 5.94 9 9 C10.49743119 7.50256881 10.33202693 6.01175761 10.5625 3.9375 C10.706875 2.638125 10.85125 1.33875 11 0 C12.32 0 13.64 0 15 0 C14.7834375 1.423125 14.7834375 1.423125 14.5625 2.875 C13.88802722 7.56740347 13.44623104 12.28134412 13 17 C11.35 17 9.7 17 8 17 C7.32845067 15.71086513 6.66291141 14.41859796 6 13.125 C5.62875 12.40570313 5.2575 11.68640625 4.875 10.9453125 C4 9 4 9 4 7 C3.34 7 2.68 7 2 7 C1.67 10.3 1.34 13.6 1 17 C0.01 17 -0.98 17 -2 17 C-1.85848172 14.9163691 -1.71162064 12.83310062 -1.5625 10.75 C-1.48128906 9.58984375 -1.40007812 8.4296875 -1.31640625 7.234375 C-1.06752213 4.69022624 -0.71885058 2.44046752 0 0 Z " fill="#212121" transform="translate(153,151)"/>
<path d="M0 0 C1.32 0 2.64 0 4 0 C5.65 3.3 7.3 6.6 9 10 C9.66 6.7 10.32 3.4 11 0 C11.99 0 12.98 0 14 0 C14.21824777 6.0018137 13.5056904 11.19233704 12 17 C10.68 17 9.36 17 8 17 C6.35 14.03 4.7 11.06 3 8 C2.01 10.97 1.02 13.94 0 17 C-0.66 17 -1.32 17 -2 17 C-2.25287193 10.93107371 -1.69832609 5.83799592 0 0 Z " fill="#202020" transform="translate(72,151)"/>
<path d="M0 0 C1.65 0 3.3 0 5 0 C5.67364661 2.08108685 6.33866798 4.1649671 7 6.25 C7.37125 7.41015625 7.7425 8.5703125 8.125 9.765625 C9 13 9 13 9 17 C7.68 17 6.36 17 5 17 C5 15.68 5 14.36 5 13 C2.36 13.33 -0.28 13.66 -3 14 C-3.33 14.99 -3.66 15.98 -4 17 C-5.32 17 -6.64 17 -8 17 C-6.51095825 13.10391502 -4.75621287 9.40902982 -2.875 5.6875 C-2.06675781 4.08455078 -2.06675781 4.08455078 -1.2421875 2.44921875 C-0.62730469 1.23685547 -0.62730469 1.23685547 0 0 Z " fill="#1E1E1E" transform="translate(232,151)"/>
<path d="M0 0 C1.45792884 -0.05399736 2.91642712 -0.09279177 4.375 -0.125 C5.18710938 -0.14820313 5.99921875 -0.17140625 6.8359375 -0.1953125 C9 0 9 0 11 2 C11.29677979 4.81940797 11.31271709 6.46143168 9.875 8.9375 C8.6838438 11.15583873 8.6838438 11.15583873 9.875 14.25 C10.431875 15.61125 10.431875 15.61125 11 17 C10.01 17 9.02 17 8 17 C6.61876037 15.03277992 5.28511874 13.03131672 4 11 C3.34 10.67 2.68 10.34 2 10 C1.67 12.31 1.34 14.62 1 17 C0.01 17 -0.98 17 -2 17 C-1.03644647 5.47835991 -1.03644647 5.47835991 0 0 Z " fill="#151515" transform="translate(202,151)"/>
<path d="M0 0 C2.625 -0.1875 2.625 -0.1875 5 0 C8.44419134 11.52164009 8.44419134 11.52164009 8 17 C7.01 17 6.02 17 5 17 C5 15.68 5 14.36 5 13 C2.03 13 -0.94 13 -4 13 C-4.33 14.32 -4.66 15.64 -5 17 C-5.99 17 -6.98 17 -8 17 C-7.42231401 13.32617676 -6.42308392 10.58823394 -4.5625 7.375 C-4.13066406 6.61960938 -3.69882813 5.86421875 -3.25390625 5.0859375 C-2.21701251 3.36101146 -1.11638406 1.67457609 0 0 Z " fill="#1B1B1B" transform="translate(189,151)"/>
<path d="M0 0 C1.875 0.9375 1.875 0.9375 3.75 1.875 C3.20773019 5.67088866 1.54872437 7.34711993 -1.25 9.875 C-1.91 9.545 -2.57 9.215 -3.25 8.875 C-1.6 7.225 0.05 5.575 1.75 3.875 C0.1 3.875 -1.55 3.875 -3.25 3.875 C-3.61351563 4.54144531 -3.97703125 5.20789062 -4.3515625 5.89453125 C-5.40963423 7.83432941 -6.4696716 9.77305618 -7.53125 11.7109375 C-8.65014151 13.77071505 -9.75509438 15.83814566 -10.84375 17.9140625 C-11.3490625 18.87054688 -11.854375 19.82703125 -12.375 20.8125 C-12.83132812 21.68777344 -13.28765625 22.56304687 -13.7578125 23.46484375 C-15.34009906 26.02052649 -16.97945002 27.90992562 -19.25 29.875 C-19.91 29.875 -20.57 29.875 -21.25 29.875 C-21.58 31.195 -21.91 32.515 -22.25 33.875 C-24.56 33.545 -26.87 33.215 -29.25 32.875 C-28.26 32.38 -28.26 32.38 -27.25 31.875 C-26.92 30.885 -26.59 29.895 -26.25 28.875 C-25.033125 28.400625 -23.81625 27.92625 -22.5625 27.4375 C-16.46423108 24.6120051 -14.7552592 18.75330398 -12.25 12.875 C-6.44563288 -0.35809072 -6.44563288 -0.35809072 0 0 Z " fill="#333333" transform="translate(115.25,51.125)"/>
<path d="M0 0 C0.99 0 1.98 0 3 0 C3 3.96 3 7.92 3 12 C4.32 11.67 5.64 11.34 7 11 C7.66 7.37 8.32 3.74 9 0 C10.32 0 11.64 0 13 0 C12.71743908 1.93884889 12.4236207 3.87605961 12.125 5.8125 C11.96257812 6.89144531 11.80015625 7.97039062 11.6328125 9.08203125 C11 12 11 12 9 15 C8.34 15 7.68 15 7 15 C7 15.66 7 16.32 7 17 C1.53493095 17.36433794 1.53493095 17.36433794 -0.71484375 15.83203125 C-2.53405274 13.23869077 -2.13347346 11.60113318 -1.75 8.5 C-1.64171875 7.5409375 -1.5334375 6.581875 -1.421875 5.59375 C-1 3 -1 3 0 0 Z " fill="#2F2F2F" transform="translate(105,151)"/>
<path d="M0 0 C3.3 0 6.6 0 10 0 C10 0.99 10 1.98 10 3 C7.69 3 5.38 3 3 3 C3 4.32 3 5.64 3 7 C4.65 7 6.3 7 8 7 C8 7.99 8 8.98 8 10 C6.02 10 4.04 10 2 10 C2 11.32 2 12.64 2 14 C3.98 14 5.96 14 8 14 C8 14.99 8 15.98 8 17 C4.7 17 1.4 17 -2 17 C-1.03644647 5.47835991 -1.03644647 5.47835991 0 0 Z " fill="#090909" transform="translate(140,151)"/>
<path d="M0 0 C0.99 0 1.98 0 3 0 C2.34 5.61 1.68 11.22 1 17 C0.01 17 -0.98 17 -2 17 C-2 16.01 -2 15.02 -2 14 C-3.98 14 -5.96 14 -8 14 C-8 12.68 -8 11.36 -8 10 C-6.02 10 -4.04 10 -2 10 C-2 9.01 -2 8.02 -2 7 C-3.65 7 -5.3 7 -7 7 C-7 5.68 -7 4.36 -7 3 C-4.69 3 -2.38 3 0 3 C0 2.01 0 1.02 0 0 Z " fill="#DADADA" transform="translate(150,151)"/>
<path d="M0 0 C1.24546405 2.49092811 0.7767578 3.41080733 0 6 C0.66 6 1.32 6 2 6 C0.12849037 13.15129696 -2.49786342 19.49405457 -6 26 C-6.66 26 -7.32 26 -8 26 C-8.66 27.98 -9.32 29.96 -10 32 C-10.99 32 -11.98 32 -13 32 C-11.47596691 27.95107627 -9.57184966 24.2035673 -7.5625 20.375 C-4.50164536 14.4239968 -2.40731827 8.56748526 -1 2 C-1.66 1.67 -2.32 1.34 -3 1 C-2.01 0.67 -1.02 0.34 0 0 Z " fill="#313131" transform="translate(259,74)"/>
<path d="M0 0 C3.63 0 7.26 0 11 0 C11 0.99 11 1.98 11 3 C9.68 3.33 8.36 3.66 7 4 C6.34 8.29 5.68 12.58 5 17 C4.01 17 3.02 17 2 17 C2.33 12.38 2.66 7.76 3 3 C2.01 3 1.02 3 0 3 C0 2.01 0 1.02 0 0 Z " fill="#0F0F0F" transform="translate(170,151)"/>
<path d="M0 0 C2 3 2 3 2 5 C2.99 5.33 3.98 5.66 5 6 C4.01 6 3.02 6 2 6 C2 6.99 2 7.98 2 9 C2.66 9.33 3.32 9.66 4 10 C3.34 10 2.68 10 2 10 C2 10.66 2 11.32 2 12 C-12.36363636 24 -12.36363636 24 -18 24 C-18 22.02 -18 20.04 -18 18 C-17.443125 18.22042969 -16.88625 18.44085938 -16.3125 18.66796875 C-13.08408929 19.13150745 -11.72791805 18.02992401 -9 16.3125 C-8.154375 15.79300781 -7.30875 15.27351562 -6.4375 14.73828125 C-3.95575925 12.96845011 -1.92814548 11.36595833 0 9 C0.47922359 6.64475339 0.47922359 6.64475339 0.25 4.25 C0.19585937 3.05117187 0.19585937 3.05117187 0.140625 1.828125 C0.09421875 1.22484375 0.0478125 0.6215625 0 0 Z " fill="#2E2E2E" transform="translate(228,118)"/>
<path d="M0 0 C1.98 0 3.96 0 6 0 C6 0.99 6 1.98 6 3 C5.34 3 4.68 3 4 3 C4 7.62 4 12.24 4 17 C2.02 17 0.04 17 -2 17 C-2 16.01 -2 15.02 -2 14 C-1.34 14 -0.68 14 0 14 C0 9.38 0 4.76 0 0 Z " fill="#151515" transform="translate(63,151)"/>
<path d="M0 0 C1.98 0 3.96 0 6 0 C6 0.99 6 1.98 6 3 C5.34 3 4.68 3 4 3 C4 7.62 4 12.24 4 17 C2.02 17 0.04 17 -2 17 C-2 16.01 -2 15.02 -2 14 C-1.34 14 -0.68 14 0 14 C0 9.38 0 4.76 0 0 Z " fill="#171717" transform="translate(218,151)"/>
<path d="M0 0 C1.32 0 2.64 0 4 0 C4 0.99 4 1.98 4 3 C4.66 3 5.32 3 6 3 C6 4.65 6 6.3 6 8 C4.68 7.67 3.36 7.34 2 7 C1.67 10.3 1.34 13.6 1 17 C0.01 17 -0.98 17 -2 17 C-2.21824777 10.9981863 -1.5056904 5.80766296 0 0 Z " fill="#121212" transform="translate(120,151)"/>
<path d="M0 0 C1.99954746 -0.04254356 4.00041636 -0.04080783 6 0 C7 1 7 1 7.25 4.375 C7 8 7 8 5.75 9.9375 C4 11 4 11 0 11 C0 7.37 0 3.74 0 0 Z " fill="#E8E8E8" transform="translate(91,154)"/>
<path d="M0 0 C1.65 0 3.3 0 5 0 C5 3.63 5 7.26 5 11 C2.0625 10.625 2.0625 10.625 -1 10 C-1.33 9.34 -1.66 8.68 -2 8 C-2.33 8.66 -2.66 9.32 -3 10 C-3.66 9.67 -4.32 9.34 -5 9 C-3.35 6.03 -1.7 3.06 0 0 Z " fill="#444444" transform="translate(189,151)"/>
<path d="M0 0 C2.875 -0.125 2.875 -0.125 6 0 C6.66 0.66 7.32 1.32 8 2 C6.35 2.33 4.7 2.66 3 3 C3.33 4.98 3.66 6.96 4 9 C3.34 9 2.68 9 2 9 C1.67 11.64 1.34 14.28 1 17 C0.01 17 -0.98 17 -2 17 C-1.03644647 5.47835991 -1.03644647 5.47835991 0 0 Z " fill="#101010" transform="translate(202,151)"/>
<path d="M0 0 C1.32 0 2.64 0 4 0 C4.33 1.65 4.66 3.3 5 5 C4.01 5.33 3.02 5.66 2 6 C1.67 9.63 1.34 13.26 1 17 C0.01 17 -0.98 17 -2 17 C-1.85848172 14.9163691 -1.71162064 12.83310062 -1.5625 10.75 C-1.48128906 9.58984375 -1.40007812 8.4296875 -1.31640625 7.234375 C-1.06752213 4.69022624 -0.71885058 2.44046752 0 0 Z " fill="#121212" transform="translate(153,151)"/>
<path d="M0 0 C0.66 0.66 1.32 1.32 2 2 C1.9765625 4.8203125 1.9765625 4.8203125 1.625 8.125 C1.45871094 9.76855469 1.45871094 9.76855469 1.2890625 11.4453125 C1.19367188 12.28835937 1.09828125 13.13140625 1 14 C0.67 14 0.34 14 0 14 C0 12.02 0 10.04 0 8 C-0.66 8 -1.32 8 -2 8 C-2.226875 8.7425 -2.45375 9.485 -2.6875 10.25 C-4.24407532 13.51139591 -6.08518854 14.92894975 -9 17 C-11.475 16.01 -11.475 16.01 -14 15 C-14 14.67 -14 14.34 -14 14 C-13.113125 13.79375 -12.22625 13.5875 -11.3125 13.375 C-5.26090444 10.86301694 -2.61293542 5.7759625 0 0 Z " fill="#404040" transform="translate(166,100)"/>
<path d="M0 0 C0.66 0 1.32 0 2 0 C1.68817931 1.41681634 1.37551263 2.83344651 1.0625 4.25 C0.88847656 5.03890625 0.71445313 5.8278125 0.53515625 6.640625 C0.052444 8.76878703 -0.46163178 10.88532842 -1 13 C-1.66 13 -2.32 13 -3 13 C-3.433125 14.2065625 -3.433125 14.2065625 -3.875 15.4375 C-5 18 -5 18 -7 19 C-7 18.34 -7 17.68 -7 17 C-8.32 17.33 -9.64 17.66 -11 18 C-11 17.01 -11 16.02 -11 15 C-10.4225 14.979375 -9.845 14.95875 -9.25 14.9375 C-4.76681621 13.06950675 -3.0992922 7.3254224 -1.25 3.0625 C-0.8375 2.051875 -0.425 1.04125 0 0 Z " fill="#343434" transform="translate(195,99)"/>
<path d="M0 0 C0.66 0.33 1.32 0.66 2 1 C2.33 1.99 2.66 2.98 3 4 C2.39671875 4.18304688 1.7934375 4.36609375 1.171875 4.5546875 C-2.01040364 6.67239091 -2.65051686 9.63293091 -3.75 13.125 C-4.08064453 14.11306641 -4.08064453 14.11306641 -4.41796875 15.12109375 C-4.95861188 16.74302313 -5.48109707 18.37098507 -6 20 C-6.99 20 -7.98 20 -9 20 C-7.25353254 12.78562041 -5.41265626 5.41265626 0 0 Z " fill="#1A1A1A" transform="translate(214,54)"/>
<path d="M0 0 C1.32 0 2.64 0 4 0 C3.77065591 1.91924787 3.51565657 3.8354406 3.25 5.75 C3.11078125 6.81734375 2.9715625 7.8846875 2.828125 8.984375 C1.8902252 12.39974598 0.68083082 13.75507663 -2 16 C-2.99 15.67 -3.98 15.34 -5 15 C-4.52949219 14.45859375 -4.05898437 13.9171875 -3.57421875 13.359375 C-1.73777329 10.60698528 -1.31616146 8.50442793 -0.8125 5.25 C-0.65394531 4.26515625 -0.49539062 3.2803125 -0.33203125 2.265625 C-0.22246094 1.51796875 -0.11289063 0.7703125 0 0 Z " fill="#161616" transform="translate(114,151)"/>
<path d="M0 0 C2.64 0 5.28 0 8 0 C8 0.66 8 1.32 8 2 C8.99 2.33 9.98 2.66 11 3 C11.12375 3.804375 11.2475 4.60875 11.375 5.4375 C11.58125 6.283125 11.7875 7.12875 12 8 C12.66 8.33 13.32 8.66 14 9 C13.01 10.32 12.02 11.64 11 13 C10.67 11.02 10.34 9.04 10 7 C5.46859347 6.06619039 5.46859347 6.06619039 1 7 C1.20625 6.21625 1.4125 5.4325 1.625 4.625 C1.74875 3.75875 1.8725 2.8925 2 2 C1.34 1.34 0.68 0.68 0 0 Z " fill="#202020" transform="translate(302,50)"/>
<path d="M0 0 C0.33 0.66 0.66 1.32 1 2 C3.01669827 3.13350534 3.01669827 3.13350534 5 4 C4.34 4 3.68 4 3 4 C3 5.32 3 6.64 3 8 C4.98 8 6.96 8 9 8 C9 8.99 9 9.98 9 11 C5.7 11 2.4 11 -1 11 C-0.67 7.37 -0.34 3.74 0 0 Z " fill="#121212" transform="translate(139,157)"/>
<path d="M0 0 C0.66 0.66 1.32 1.32 2 2 C1.98252112 4.59269983 1.86231408 7.0525154 1.625 9.625 C1.56828125 10.33140625 1.5115625 11.0378125 1.453125 11.765625 C1.31159079 13.51121361 1.15702613 15.25573673 1 17 C0.01 17 -0.98 17 -2 17 C-3.13016601 11.97703996 -2.77916092 8.02125926 -2 3 C-1.34 3 -0.68 3 0 3 C0 2.01 0 1.02 0 0 Z " fill="#DADADA" transform="translate(69,151)"/>
<path d="M0 0 C0.99 0 1.98 0 3 0 C2.09864057 5.76870037 0.23616246 11.14575631 -3 16 C-4.9453125 16.51171875 -4.9453125 16.51171875 -7.125 16.6875 C-8.40375 16.790625 -9.6825 16.89375 -11 17 C-7.25 15 -7.25 15 -5 15 C-4.5978125 13.7934375 -4.5978125 13.7934375 -4.1875 12.5625 C-2.79166667 8.375 -1.39583333 4.1875 0 0 Z " fill="#3A3A3A" transform="translate(122,99)"/>
<path d="M0 0 C7.68421053 -0.29554656 7.68421053 -0.29554656 11 2 C12.44207941 4.88415883 12.09394887 7.41721528 12.0625 10.625 C12.05347656 11.81351563 12.04445312 13.00203125 12.03515625 14.2265625 C12.02355469 15.14179687 12.01195312 16.05703125 12 17 C11.34 17.33 10.68 17.66 10 18 C10.01160156 17.30132812 10.02320313 16.60265625 10.03515625 15.8828125 C10.04417969 14.97273438 10.05320313 14.06265625 10.0625 13.125 C10.07410156 12.22007813 10.08570313 11.31515625 10.09765625 10.3828125 C10.16249257 7.9831415 10.16249257 7.9831415 9 6 C6.97536745 5.34786708 6.97536745 5.34786708 5 5 C5 4.34 5 3.68 5 3 C2.525 2.01 2.525 2.01 0 1 C0 0.67 0 0.34 0 0 Z " fill="#393939" transform="translate(167,50)"/>
<path d="M0 0 C1.875 0.9375 1.875 0.9375 3.75 1.875 C3.20773019 5.67088866 1.54872437 7.34711993 -1.25 9.875 C-1.91 9.545 -2.57 9.215 -3.25 8.875 C-1.6 7.225 0.05 5.575 1.75 3.875 C0.1 3.875 -1.55 3.875 -3.25 3.875 C-4.57 6.185 -5.89 8.495 -7.25 10.875 C-8.24 10.545 -9.23 10.215 -10.25 9.875 C-8.9052028 5.16820981 -5.50417989 -0.30578777 0 0 Z " fill="#3F3F3F" transform="translate(115.25,51.125)"/>
<path d="M0 0 C0.33 0 0.66 0 1 0 C1 2.97 1 5.94 1 9 C0.01 9 -0.98 9 -2 9 C-2 8.01 -2 7.02 -2 6 C-3.98 6 -5.96 6 -8 6 C-8 4.68 -8 3.36 -8 2 C-6.865625 1.855625 -5.73125 1.71125 -4.5625 1.5625 C-1.19222799 1.38828522 -1.19222799 1.38828522 0 0 Z " fill="#EBEBEB" transform="translate(150,159)"/>
<path d="M0 0 C2.475 0.99 2.475 0.99 5 2 C6.33783784 8.32432432 6.33783784 8.32432432 4.8125 11.375 C2.84567494 13.1383604 1.59060578 13.64267506 -1 14 C-0.34 13.01 0.32 12.02 1 11 C1.20993972 7.15110517 1.18005182 3.68766192 0 0 Z " fill="#191919" transform="translate(96,151)"/>
<path d="M0 0 C1.32 0 2.64 0 4 0 C3.34 3.96 2.68 7.92 2 12 C1.34 12 0.68 12 0 12 C-0.19401633 10.18818595 -0.38004375 8.37551468 -0.5625 6.5625 C-0.66691406 5.55316406 -0.77132812 4.54382813 -0.87890625 3.50390625 C-0.91886719 2.67761719 -0.95882812 1.85132813 -1 1 C-0.67 0.67 -0.34 0.34 0 0 Z " fill="#131313" transform="translate(134,151)"/>
<path d="M0 0 C1.65 0 3.3 0 5 0 C5.33 2.31 5.66 4.62 6 7 C5.01 7.66 4.02 8.32 3 9 C3 7.68 3 6.36 3 5 C1.68 5.33 0.36 5.66 -1 6 C-0.67 4.02 -0.34 2.04 0 0 Z " fill="#161616" transform="translate(232,151)"/>
<path d="M0 0 C0.66 0.99 1.32 1.98 2 3 C0.22054913 7.04420651 -2.39529673 10.46078487 -5 14 C-5.99 13.34 -6.98 12.68 -8 12 C-7.236875 11.13375 -6.47375 10.2675 -5.6875 9.375 C-3.24779927 6.46399345 -1.57001723 3.47056439 0 0 Z " fill="#353535" transform="translate(301,100)"/>
<path d="M0 0 C0.66 0 1.32 0 2 0 C1.03644647 11.52164009 1.03644647 11.52164009 0 17 C-2.33515692 13.49726462 -2.13947892 12.55147373 -1.6875 8.5 C-1.58824219 7.5409375 -1.48898438 6.581875 -1.38671875 5.59375 C-1 3 -1 3 0 0 Z " fill="#DDDDDD" transform="translate(138,151)"/>
<path d="M0 0 C1.32 0 2.64 0 4 0 C3.10164835 7.78571429 3.10164835 7.78571429 1 11 C0.01 11.495 0.01 11.495 -1 12 C-0.67 8.04 -0.34 4.08 0 0 Z " fill="#1E1E1E" transform="translate(164,151)"/>
<path d="M0 0 C0.66 0 1.32 0 2 0 C1.38273804 5.67355671 0.72054048 11.33861055 0 17 C-0.66 16.01 -1.32 15.02 -2 14 C-2.99 14.495 -2.99 14.495 -4 15 C-3.71125 14.195625 -3.4225 13.39125 -3.125 12.5625 C-1.81642821 8.41868933 -0.88782235 4.25021337 0 0 Z " fill="#CECECE" transform="translate(118,151)"/>
<path d="M0 0 C0.66 0.66 1.32 1.32 2 2 C1.67 2.33 1.34 2.66 1 3 C0.76712992 4.68183948 0.58735834 6.3712416 0.4375 8.0625 C0.31181641 9.44115234 0.31181641 9.44115234 0.18359375 10.84765625 C0.12300781 11.55792969 0.06242187 12.26820313 0 13 C-0.99 13.33 -1.98 13.66 -3 14 C-3.32374517 8.49633208 -3.53286034 4.56327794 0 0 Z " fill="#0C0C0C" transform="translate(73,154)"/>
<path d="M0 0 C3.63 0 7.26 0 11 0 C11 0.99 11 1.98 11 3 C6.98195309 3.84098656 3.98196457 4.05404945 0 3 C0 2.01 0 1.02 0 0 Z " fill="#060606" transform="translate(170,151)"/>
<path d="M0 0 C0.66 0 1.32 0 2 0 C1.57388649 1.75280733 1.13360733 3.50217435 0.6875 5.25 C0.44386719 6.22453125 0.20023437 7.1990625 -0.05078125 8.203125 C-0.99652356 10.98975665 -2.10708713 12.77304368 -4 15 C-5.11346788 12.19966161 -5.03510273 11.09856297 -4.00390625 8.203125 C-3.52824219 7.22859375 -3.05257813 6.2540625 -2.5625 5.25 C-2.08941406 4.26515625 -1.61632812 3.2803125 -1.12890625 2.265625 C-0.75636719 1.51796875 -0.38382812 0.7703125 0 0 Z " fill="#262626" transform="translate(330,99)"/>
<path d="M0 0 C0.99 0 1.98 0 3 0 C3 2.31 3 4.62 3 7 C2.34 7 1.68 7 1 7 C0.34 8.32 -0.32 9.64 -1 11 C-1.125 3.375 -1.125 3.375 0 0 Z " fill="#1A1A1A" transform="translate(105,151)"/>
<path d="M0 0 C0.66 0.33 1.32 0.66 2 1 C1.06027344 1.81404297 1.06027344 1.81404297 0.1015625 2.64453125 C-0.71570313 3.35996094 -1.53296875 4.07539062 -2.375 4.8125 C-3.18710938 5.52019531 -3.99921875 6.22789063 -4.8359375 6.95703125 C-7.16183188 8.99981253 -7.16183188 8.99981253 -9 12 C-9 11.34 -9 10.68 -9 10 C-9.66 9.67 -10.32 9.34 -11 9 C-9.73113036 7.87278564 -8.45982438 6.74831342 -7.1875 5.625 C-6.47980469 4.99851562 -5.77210938 4.37203125 -5.04296875 3.7265625 C-3 2 -3 2 0 0 Z " fill="#272727" transform="translate(160,53)"/>
<path d="M0 0 C0.66 0.33 1.32 0.66 2 1 C2 2.98 2 4.96 2 7 C0.68 7 -0.64 7 -2 7 C-2.33 5.02 -2.66 3.04 -3 1 C-2.01 0.67 -1.02 0.34 0 0 Z " fill="#111111" transform="translate(82,161)"/>
<path d="M0 0 C0.99 0.33 1.98 0.66 3 1 C2.01 4.3 1.02 7.6 0 11 C-0.99 11 -1.98 11 -3 11 C-2.11223998 7.30099992 -1.05418136 3.65449539 0 0 Z " fill="#3C3C3C" transform="translate(208,63)"/>
<path d="M0 0 C0.66 0.99 1.32 1.98 2 3 C-0.97 5.475 -0.97 5.475 -4 8 C-6.475 7.01 -6.475 7.01 -9 6 C-9 5.67 -9 5.34 -9 5 C-8.071875 4.731875 -7.14375 4.46375 -6.1875 4.1875 C-3.23759634 3.08851629 -1.94384814 2.37581439 0 0 Z " fill="#2D2D2D" transform="translate(161,109)"/>
<path d="M0 0 C1.65 0.33 3.3 0.66 5 1 C5.33 2.65 5.66 4.3 6 6 C4.35 6 2.7 6 1 6 C-0.0625 4.125 -0.0625 4.125 -1 2 C-0.67 1.34 -0.34 0.68 0 0 Z " fill="#8A8A8A" transform="translate(230,155)"/>
<path d="M0 0 C2.31 0 4.62 0 7 0 C7 0.99 7 1.98 7 3 C5.35 3 3.7 3 2 3 C1.67 3.66 1.34 4.32 1 5 C0.67 3.35 0.34 1.7 0 0 Z " fill="#050505" transform="translate(89,151)"/>
<path d="M0 0 C1.32 0 2.64 0 4 0 C3.67 2.97 3.34 5.94 3 9 C0 6 0 6 -0.1875 2.8125 C-0.125625 1.884375 -0.06375 0.95625 0 0 Z " fill="#1C1C1C" transform="translate(114,151)"/>
<path d="M0 0 C0.33 1.32 0.66 2.64 1 4 C0.34 4 -0.32 4 -1 4 C-1.66 5.98 -2.32 7.96 -3 10 C-3.99 10 -4.98 10 -6 10 C-4.6302836 6.00499382 -2.74277578 3.19990508 0 0 Z " fill="#292929" transform="translate(252,96)"/>
<path d="M0 0 C2.31 0 4.62 0 7 0 C7.66 1.65 8.32 3.3 9 5 C7.68 5 6.36 5 5 5 C5 4.34 5 3.68 5 3 C2.525 2.01 2.525 2.01 0 1 C0 0.67 0 0.34 0 0 Z " fill="#262626" transform="translate(167,50)"/>
<path d="M0 0 C0.33 0.66 0.66 1.32 1 2 C1.66 2 2.32 2 3 2 C3 2.99 3 3.98 3 5 C1.02 5 -0.96 5 -3 5 C-3 4.01 -3 3.02 -3 2 C-2.01 1.34 -1.02 0.68 0 0 Z " fill="#0F0F0F" transform="translate(219,163)"/>
<path d="M0 0 C0.33 0.99 0.66 1.98 1 3 C1.66 3 2.32 3 3 3 C3 4.65 3 6.3 3 8 C1.68 8 0.36 8 -1 8 C-0.67 5.36 -0.34 2.72 0 0 Z " fill="#202020" transform="translate(133,160)"/>
<path d="M0 0 C1.65 0 3.3 0 5 0 C5 1.32 5 2.64 5 4 C3.35 4 1.7 4 0 4 C0 2.68 0 1.36 0 0 Z " fill="#D5D5D5" transform="translate(205,154)"/>
<path d="M0 0 C0.99 0.99 1.98 1.98 3 3 C2.34 4.32 1.68 5.64 1 7 C0.566875 6.0409375 0.566875 6.0409375 0.125 5.0625 C-0.82823451 2.84793921 -0.82823451 2.84793921 -3 2 C-2.01 1.34 -1.02 0.68 0 0 Z " fill="#292929" transform="translate(158,155)"/>
<path d="M0 0 C0.66 0 1.32 0 2 0 C1.34 2.97 0.68 5.94 0 9 C-0.66 9 -1.32 9 -2 9 C-2.20140476 5.37471432 -1.85776765 3.13498292 0 0 Z " fill="#232323" transform="translate(195,99)"/>
<path d="M0 0 C1 3 1 3 -0.4375 6.1875 C-1.2109375 7.5796875 -1.2109375 7.5796875 -2 9 C-2.33 9 -2.66 9 -3 9 C-2.4140625 2.84765625 -2.4140625 2.84765625 -2 1 C-1.34 0.67 -0.68 0.34 0 0 Z " fill="#1F1F1F" transform="translate(106,60)"/>
<path d="M0 0 C0.33 0 0.66 0 1 0 C1.37211538 6.57403846 1.37211538 6.57403846 -0.51171875 8.73046875 C-1.00285156 9.14941406 -1.49398437 9.56835938 -2 10 C-1.85950482 8.52031676 -1.71245174 7.04125484 -1.5625 5.5625 C-1.48128906 4.73878906 -1.40007812 3.91507813 -1.31640625 3.06640625 C-1 1 -1 1 0 0 Z " fill="#080808" transform="translate(89,158)"/>
<path d="M0 0 C0.33 0 0.66 0 1 0 C0.25 6.75 0.25 6.75 -2 9 C-4.125 9.625 -4.125 9.625 -6 10 C-5.195625 9.0925 -4.39125 8.185 -3.5625 7.25 C-1.58857329 4.89690092 -0.36122533 3.13061954 0 0 Z " fill="#363636" transform="translate(101,155)"/>
<path d="M0 0 C1.24546405 2.49092811 0.7767578 3.41080733 0 6 C0.66 6 1.32 6 2 6 C1.34 7.32 0.68 8.64 0 10 C-0.66 9.67 -1.32 9.34 -2 9 C-1.67 6.69 -1.34 4.38 -1 2 C-1.66 1.67 -2.32 1.34 -3 1 C-2.01 0.67 -1.02 0.34 0 0 Z " fill="#4E4E4E" transform="translate(259,74)"/>
<path d="M0 0 C0.99 0 1.98 0 3 0 C3 1.65 3 3.3 3 5 C2.34 5 1.68 5 1 5 C0.67 5.66 0.34 6.32 0 7 C0 4.69 0 2.38 0 0 Z " fill="#090909" transform="translate(83,151)"/>
</svg>
